<svg width="110" height="66" viewBox="0 0 110 66" fill="none" xmlns="http://www.w3.org/2000/svg">
<path d="M1.27365 34.9663L17.7962 63.5842C18.4371 64.6942 19.6214 65.3779 20.903 65.3779L53.9482 65.3779C55.2299 65.3779 56.4142 64.6942 57.055 63.5842L61.1857 56.4297L69.4469 42.1207L73.5776 34.9663C74.2184 33.8563 74.2184 32.4888 73.5776 31.3788L57.055 2.76088C56.4142 1.65093 55.2299 0.967172 53.9482 0.967174L20.903 0.967172C19.6214 0.967169 18.4371 1.65093 17.7962 2.76088L1.27365 31.3788C0.63282 32.4888 0.63282 33.8563 1.27365 34.9663Z" fill="white"/>
<path d="M12.2773 25.8851L8.99584 31.5687C8.48676 32.4505 8.48676 33.5369 8.99584 34.4186L22.1216 57.1531C22.6307 58.0348 23.5715 58.578 24.5896 58.578L50.8411 58.578C51.8593 58.578 52.8001 58.0348 53.3092 57.1531L66.4349 34.4186C66.944 33.5369 66.944 32.4505 66.4349 31.5687L53.3092 8.83431C52.8001 7.95255 51.8593 7.40937 50.8411 7.40937L24.5896 7.40937C23.5715 7.40937 22.6307 7.95255 22.1216 8.83431L18.8401 14.5179" stroke="url(#paint0_linear_1999_20490)" stroke-width="3" stroke-linecap="round"/>
<path d="M34 40C31.7143 40 30.4626 40.9674 30 41.2605V48.8235C31.1429 49.2157 34.3429 50 38 50C41.6571 50 44.8571 48.9542 46 48.4314V40.9804C45.4286 41.3165 44.7592 41.7647 41.4286 41.7647C38.098 41.7647 36.8571 40 34 40Z" fill="#EC519E"/>
<path d="M29.1981 48.056L28.0912 21.5105C29.0512 22.0426 30.1694 22.409 31.3198 22.6657C33.3923 23.128 35.7661 23.2759 38 23.2759C40.2778 23.2759 42.8041 22.9737 44.9347 22.4398C45.9997 22.173 46.9926 21.8417 47.8168 21.4464C47.8491 21.4309 47.8813 21.4152 47.9135 21.3994L46.8019 48.056C45.6937 48.6303 42.5706 50 38 50C33.4294 50 30.3063 48.6303 29.1981 48.056ZM47.1129 19.5634C47.0612 19.5898 47.0076 19.6164 46.9519 19.6431C46.2866 19.9622 45.4308 20.2537 44.4486 20.4998C42.4848 20.9919 40.1222 21.2759 38 21.2759C35.8339 21.2759 33.6243 21.1306 31.7552 20.7136C30.4832 20.4299 29.4524 20.0383 28.7 19.5437C28.7977 19.5058 28.9027 19.467 29.0155 19.4274C29.7444 19.1716 30.6693 18.9258 31.6958 18.7117C33.7526 18.2828 36.1273 18 38 18C39.8686 18 42.0878 18.2817 44.0677 18.7101C45.2503 18.966 46.297 19.2636 47.1129 19.5634Z" stroke="#9D3D97" stroke-width="2"/>
<defs>
<linearGradient id="paint0_linear_1999_20490" x1="52.266" y1="7.79118" x2="23.1647" y2="58.1962" gradientUnits="userSpaceOnUse">
<stop stop-color="#DA5DB0"/>
<stop offset="1" stop-color="#924292"/>
</linearGradient>
</defs>
</svg>
