<svg width="110" height="66" viewBox="0 0 110 66" fill="none" xmlns="http://www.w3.org/2000/svg">
<path d="M1.27365 34.9663L17.7962 63.5842C18.4371 64.6942 19.6214 65.3779 20.903 65.3779L53.9482 65.3779C55.2299 65.3779 56.4142 64.6942 57.055 63.5842L61.1857 56.4297L69.4469 42.1207L73.5776 34.9663C74.2184 33.8563 74.2184 32.4888 73.5776 31.3788L57.055 2.76088C56.4142 1.65093 55.2299 0.967172 53.9482 0.967174L20.903 0.967172C19.6214 0.967169 18.4371 1.65093 17.7962 2.76088L1.27365 31.3788C0.63282 32.4888 0.63282 33.8563 1.27365 34.9663Z" fill="white"/>
<path d="M12.2773 25.8851L8.99584 31.5687C8.48676 32.4505 8.48676 33.5369 8.99584 34.4186L22.1216 57.1531C22.6307 58.0348 23.5715 58.578 24.5896 58.578L50.8411 58.578C51.8593 58.578 52.8001 58.0348 53.3092 57.1531L66.4349 34.4186C66.944 33.5369 66.944 32.4505 66.4349 31.5687L53.3092 8.83431C52.8001 7.95255 51.8593 7.40937 50.8411 7.40937L24.5896 7.40937C23.5715 7.40937 22.6307 7.95255 22.1216 8.83431L18.8401 14.5179" stroke="url(#paint0_linear_1999_20501)" stroke-width="3" stroke-linecap="round"/>
<path d="M31.8615 40.9344C33.8958 39.9955 37.276 37.0222 36.5561 33.3057C36.36 33.9577 35.7111 35.4741 34.7331 35.3015C31.4077 34.7147 26.0516 33.7366 25.0152 37.0222C23.5836 41.5605 29.3186 42.1081 31.8615 40.9344Z" fill="#EC519E"/>
<path d="M48.4939 22.5477L36.9529 30.7633C33.4334 29.589 30.6923 29.5896 26.587 32.5232C20.9098 36.58 21.891 43.4773 30.1066 43.0861C36.6791 42.7731 38.7134 36.957 38.909 34.088L51.428 26.8505C52.2757 26.3291 53.6971 24.8559 52.6017 23.1346C51.5063 21.4132 49.4067 22.0261 48.4939 22.5477Z" stroke="#9D3D97" stroke-width="2" stroke-linecap="round" stroke-linejoin="round"/>
<defs>
<linearGradient id="paint0_linear_1999_20501" x1="52.266" y1="7.79118" x2="23.1647" y2="58.1962" gradientUnits="userSpaceOnUse">
<stop stop-color="#DA5DB0"/>
<stop offset="1" stop-color="#924292"/>
</linearGradient>
</defs>
</svg>
