<svg width="110" height="66" viewBox="0 0 110 66" fill="none" xmlns="http://www.w3.org/2000/svg">
<path d="M1.27365 34.9663L17.7962 63.5842C18.4371 64.6942 19.6214 65.3779 20.903 65.3779L53.9482 65.3779C55.2299 65.3779 56.4142 64.6942 57.055 63.5842L61.1857 56.4297L69.4469 42.1207L73.5776 34.9663C74.2184 33.8563 74.2184 32.4888 73.5776 31.3788L57.055 2.76088C56.4142 1.65093 55.2299 0.967172 53.9482 0.967174L20.903 0.967172C19.6214 0.967169 18.4371 1.65093 17.7962 2.76088L1.27365 31.3788C0.63282 32.4888 0.63282 33.8563 1.27365 34.9663Z" fill="white"/>
<path d="M63.1524 40.1022L66.4338 34.4186C66.9429 33.5368 66.9429 32.4504 66.4338 31.5687L53.3081 8.83425C52.799 7.9525 51.8582 7.40931 50.84 7.40931L24.5886 7.40931C23.5704 7.40931 22.6296 7.95249 22.1205 8.83425L8.99479 31.5687C8.4857 32.4504 8.4857 33.5368 8.99479 34.4186L22.1205 57.153C22.6296 58.0348 23.5704 58.5779 24.5886 58.5779L50.84 58.5779C51.8582 58.5779 52.799 58.0348 53.3081 57.153L56.5896 51.4694" stroke="url(#paint0_linear_1999_20534)" stroke-width="3" stroke-linecap="round"/>
<path d="M39.5467 33C40.6146 33 41.9986 34 41.9986 34.8C42.1621 34 43.4697 33 44.4505 33C45.9216 33 47.3975 35 46.9024 36.5C45.9638 39.3433 41.9986 42 41.9986 42C41.9986 42 37.6608 38.8296 37.0948 36.5C36.6089 34.5 38.0756 33 39.5467 33Z" fill="#EC519E"/>
<path d="M38.8438 18C41.2663 18.5063 45.6016 20.0655 45.3327 22.557C45.0731 24.962 43.1697 24.9198 42.4776 24.5823C45.2894 25.7215 51.1727 31.2152 50.6536 36.9873C50.1345 42.7595 46.3277 44.1181 44.6838 44.962C44.2945 45.173 43.5937 46.0759 43.9051 48" stroke="#9D3D97" stroke-width="2" stroke-linecap="round"/>
<path d="M28.6198 18C28.5748 20.0851 29.0241 24.5106 29.6995 26.4255C30.5212 28.7549 32.8263 33.7441 31.3421 36.5526C29.8191 39.4347 27.0003 41.3591 27 44.5532C26.9997 47.234 27.3147 47.8298 27.2697 48" stroke="#9D3D97" stroke-width="2" stroke-linecap="round"/>
<circle cx="58.5" cy="18.5" r="8.5" fill="#9D3D97"/>
<path d="M59.6641 12.9766L59.3906 20.9922H57.9062L57.6953 12.9766H59.6641ZM59.5703 22.0391V24H57.6953V22.0391H59.5703Z" fill="#FAFAFA"/>
<defs>
<linearGradient id="paint0_linear_1999_20534" x1="23.1636" y1="58.1961" x2="52.265" y2="7.79112" gradientUnits="userSpaceOnUse">
<stop stop-color="#DA5DB0"/>
<stop offset="1" stop-color="#924292"/>
</linearGradient>
</defs>
</svg>
