<svg width="110" height="66" viewBox="0 0 110 66" fill="none" xmlns="http://www.w3.org/2000/svg">
<path d="M1.27365 34.9663L17.7962 63.5842C18.4371 64.6942 19.6214 65.3779 20.903 65.3779L53.9482 65.3779C55.2299 65.3779 56.4142 64.6942 57.055 63.5842L61.1857 56.4297L69.4469 42.1207L73.5776 34.9663C74.2184 33.8563 74.2184 32.4888 73.5776 31.3788L57.055 2.76088C56.4142 1.65093 55.2299 0.967172 53.9482 0.967174L20.903 0.967172C19.6214 0.967169 18.4371 1.65093 17.7962 2.76088L1.27365 31.3788C0.63282 32.4888 0.63282 33.8563 1.27365 34.9663Z" fill="white"/>
<path d="M12.2695 25.8861L8.98803 31.5697C8.47894 32.4515 8.47894 33.5378 8.98803 34.4196L22.1138 57.154C22.6228 58.0358 23.5637 58.579 24.5818 58.579L50.8333 58.579C51.8515 58.579 52.7923 58.0358 53.3014 57.154L66.4271 34.4196C66.9362 33.5378 66.9362 32.4515 66.4271 31.5697L53.3014 8.83529C52.7923 7.95353 51.8515 7.41034 50.8333 7.41034L24.5818 7.41034C23.5637 7.41034 22.6228 7.95353 22.1138 8.83529L18.8323 14.5189" stroke="url(#paint0_linear_1999_20553)" stroke-width="3" stroke-linecap="round"/>
<path d="M26 36.5C26 38.547 24.5494 40 23 40C21.4506 40 20 38.547 20 36.5C20 34.453 21.4506 33 23 33C24.5494 33 26 34.453 26 36.5Z" fill="white" stroke="#9D3D97" stroke-width="2"/>
<path d="M54 36.5C54 38.547 52.5494 40 51 40C49.4506 40 48 38.547 48 36.5C48 34.453 49.4506 33 51 33C52.5494 33 54 34.453 54 36.5Z" fill="white" stroke="#9D3D97" stroke-width="2"/>
<path d="M50 34C50 26.2019 44.1158 20 37 20C29.8842 20 24 26.2019 24 34C24 38.0275 24.8435 41.515 26.825 43.9801C28.7738 46.4047 31.954 48 37 48C42.046 48 45.2262 46.4047 47.175 43.9801C49.1565 41.515 50 38.0275 50 34Z" fill="white" stroke="#9D3D97" stroke-width="2"/>
<path d="M37.2222 38.6315C36.5111 38.6315 35.4444 38.2222 35 38C35.1481 38.6667 35.8 40 37.2222 40C38.6444 40 39 38.6667 39 38C38.7037 38.2222 37.9333 38.6315 37.2222 38.6315Z" fill="#9D3D97"/>
<path d="M40.3901 42H33.6099C33.2944 42 33.0633 42.2903 33.2068 42.5714C33.6432 43.4261 34.7524 44.5 37 44.5C39.2476 44.5 40.3568 43.4261 40.7932 42.5713C40.9367 42.2903 40.7056 42 40.3901 42Z" fill="#9D3D97"/>
<ellipse cx="31.25" cy="35.5" rx="2.25" ry="2.5" fill="#9D3D97"/>
<ellipse cx="42.625" cy="35.5" rx="2.25" ry="2.5" fill="#9D3D97"/>
<path d="M27.0322 29.7954C29.0764 27.8608 30.8878 24.4642 31.5684 22.8521C31.5684 23.8194 34.5431 27.0323 38.6247 28.1931C43.7268 29.644 47.1803 28.8281 48.2011 29.7954C49.0178 30.5692 48.7776 31.8715 49.1179 33C52.1804 30.5818 51.3906 24.3511 47.5833 20.4255C41.6488 14.3066 31.5684 15.3748 31.0644 18.5793C27.5362 18.0452 25.1281 20.9091 24.1048 23.3273C22.8796 26.2225 22.9168 30.0982 23.0869 31.5491C23.173 32.283 25.3475 31.3896 27.0322 29.7954Z" fill="#EC519E"/>
<path d="M65 20.25C65 16.75 61.1667 12.25 59 9.75C56.8333 12.4167 53 17 53 20.25C53 23.5 55 26.25 59 26.25C63 26.25 65 23.2914 65 20.25Z" fill="#9D3D97"/>
<path d="M70.0693 13.4971L69.9111 17.1094C70.2158 16.7285 70.5146 16.4473 70.8076 16.2656C71.3467 15.9316 71.9766 15.7646 72.6973 15.7646C73.8867 15.7646 74.8447 16.1807 75.5713 17.0127C76.1689 17.6924 76.4678 18.583 76.4678 19.6846C76.4678 21.0146 76.0312 22.1045 75.1582 22.9541C74.6777 23.417 74.0801 23.7627 73.3652 23.9912C72.8262 24.1611 72.2666 24.2461 71.6865 24.2461C70.5791 24.2461 69.6211 23.9707 68.8125 23.4199C68.0156 22.875 67.5527 22.1777 67.4238 21.3281C67.4062 21.1816 67.3945 20.9941 67.3887 20.7656H69.9375C69.9668 21.0645 70.0371 21.3193 70.1484 21.5303C70.248 21.7178 70.3711 21.873 70.5176 21.9961C70.8867 22.3066 71.335 22.4619 71.8623 22.4619C72.6768 22.4619 73.2744 22.1279 73.6553 21.46C73.8779 21.0732 73.9893 20.5693 73.9893 19.9482C73.9893 19.1221 73.7871 18.5098 73.3828 18.1113C73.002 17.7422 72.5273 17.5576 71.959 17.5576C71.2969 17.5576 70.7812 17.7773 70.4121 18.2168C70.2363 18.4219 70.1162 18.7061 70.0518 19.0693H67.6172L67.8984 11.5986H75.6768V13.4971H70.0693ZM80.7052 18.978L77.5372 14.172H80.5792L82.4872 17.304L84.4132 14.172H87.4552L84.2512 18.978L87.5992 24H84.5572L82.4872 20.634L80.4172 24H77.3752L80.7052 18.978ZM91.8311 22.1016H98.335V24H89.0361V21.9258C90.7705 20.5195 92.1387 19.3301 93.1406 18.3574C94.0312 17.4961 94.6494 16.7725 94.9951 16.1865C95.2998 15.6709 95.4521 15.1934 95.4521 14.7539C95.4521 14.2617 95.2617 13.8545 94.8809 13.5322C94.5703 13.2686 94.1514 13.1367 93.624 13.1367C92.5107 13.1367 91.9453 13.7578 91.9277 15H89.3701C89.3701 14.291 89.499 13.6992 89.7568 13.2246C90.0498 12.6797 90.4424 12.2725 90.9346 12.0029C91.7197 11.5693 92.6309 11.3525 93.668 11.3525C94.4297 11.3525 95.1475 11.4844 95.8213 11.748C96.501 12.0176 97.0312 12.4482 97.4121 13.04C97.7285 13.5381 97.8867 14.1064 97.8867 14.7451C97.8867 15.4775 97.6758 16.2012 97.2539 16.916C96.4277 18.3047 94.6201 20.0332 91.8311 22.1016Z" fill="#9D3D97"/>
<defs>
<linearGradient id="paint0_linear_1999_20553" x1="52.2582" y1="7.79216" x2="23.1569" y2="58.1972" gradientUnits="userSpaceOnUse">
<stop stop-color="#DA5DB0"/>
<stop offset="1" stop-color="#924292"/>
</linearGradient>
</defs>
</svg>
