<svg width="112" height="66" viewBox="0 0 112 66" fill="none" xmlns="http://www.w3.org/2000/svg">
<path d="M1.77365 34.9663L18.2962 63.5842C18.9371 64.6942 20.1214 65.3779 21.403 65.3779L54.4482 65.3779C55.7299 65.3779 56.9142 64.6942 57.555 63.5842L61.6857 56.4297L69.9469 42.1207L74.0776 34.9663C74.7184 33.8563 74.7184 32.4888 74.0776 31.3788L57.555 2.76088C56.9142 1.65093 55.7299 0.967172 54.4482 0.967174L21.403 0.967172C20.1214 0.967169 18.9371 1.65093 18.2962 2.76088L1.77365 31.3788C1.13282 32.4888 1.13282 33.8563 1.77365 34.9663Z" fill="white"/>
<path d="M12.7695 40.1041L9.48803 34.4205C8.97894 33.5388 8.97894 32.4524 9.48803 31.5706L22.6138 8.83621C23.1228 7.95445 24.0637 7.41126 25.0818 7.41126L51.3333 7.41126C52.3515 7.41126 53.2923 7.95444 53.8014 8.8362L66.9271 31.5706C67.4362 32.4524 67.4362 33.5388 66.9271 34.4205L53.8014 57.1549C53.2923 58.0367 52.3515 58.5799 51.3333 58.5799L25.0818 58.5799C24.0637 58.5799 23.1228 58.0367 22.6138 57.1549L19.3323 51.4713" stroke="url(#paint0_linear_1999_20513)" stroke-width="3" stroke-linecap="round"/>
<path d="M26.5 39.5C26.5 41.547 25.0494 43 23.5 43C21.9506 43 20.5 41.547 20.5 39.5C20.5 37.453 21.9506 36 23.5 36C25.0494 36 26.5 37.453 26.5 39.5Z" fill="white" stroke="#9D3D97" stroke-width="2"/>
<path d="M54.5 39.5C54.5 41.547 53.0494 43 51.5 43C49.9506 43 48.5 41.547 48.5 39.5C48.5 37.453 49.9506 36 51.5 36C53.0494 36 54.5 37.453 54.5 39.5Z" fill="white" stroke="#9D3D97" stroke-width="2"/>
<path d="M50.5 37C50.5 29.2019 44.6158 23 37.5 23C30.3842 23 24.5 29.2019 24.5 37C24.5 41.0275 25.3435 44.515 27.325 46.9801C29.2738 49.4047 32.454 51 37.5 51C42.546 51 45.7262 49.4047 47.675 46.9801C49.6565 44.515 50.5 41.0275 50.5 37Z" fill="white" stroke="#9D3D97" stroke-width="2"/>
<path d="M37.7222 41.6315C37.0111 41.6315 35.9444 41.2222 35.5 41C35.6481 41.6667 36.3 43 37.7222 43C39.1444 43 39.5 41.6667 39.5 41C39.2037 41.2222 38.4333 41.6315 37.7222 41.6315Z" fill="#9D3D97"/>
<path d="M40.8901 45H34.1099C33.7944 45 33.5633 45.2903 33.7068 45.5714C34.1432 46.4261 35.2524 47.5 37.5 47.5C39.7476 47.5 40.8568 46.4261 41.2932 45.5713C41.4367 45.2903 41.2056 45 40.8901 45Z" fill="#9D3D97"/>
<ellipse cx="32.5" cy="38.25" rx="2" ry="2.25" fill="#9D3D97"/>
<ellipse cx="42.875" cy="38.25" rx="2" ry="2.25" fill="#9D3D97"/>
<path d="M51.7244 32.6463C51.164 33.9943 49.2337 35.8844 48.2665 36.4105C48.0639 36.5207 47.8461 36.3966 47.7668 36.18L45.4708 29.908C45.3555 29.5931 44.9684 29.4777 44.696 29.6734C44.0156 30.1623 42.984 30.874 42.0132 31.4577C41.211 31.9401 40.4364 32.1351 39.8576 32.1942C39.489 32.2318 39.3508 31.8675 39.5979 31.5915C39.6854 31.4937 39.7543 31.4067 39.7789 31.3454C40.0818 30.5927 40.2014 30.2287 39.9397 29.8616C39.782 29.6403 39.455 29.6849 39.2663 29.8805C38.5711 30.601 37.2766 31.6959 35.8301 32.1851C34.6753 32.5757 32.8908 32.624 31.4357 32.5647C30.9297 32.5441 30.7659 31.7894 31.1863 31.5073L31.2599 31.4577C31.8924 31.0299 32.1761 30.3137 32.282 29.7717C32.335 29.5007 32.1108 29.2732 31.8357 29.297C29.9197 29.4626 28.184 30.5814 26.9157 32.4902C26.1102 33.7025 26.2005 37 25.9317 37C25.6629 37 21.5014 33.0871 21.5 27.0784C21.4987 21.6004 25.0677 19.002 27.3957 17.545C27.5766 17.4317 27.5987 16.8538 27.4952 16.6672C27.3914 16.48 27.3252 16.0218 27.2845 15.516C27.2457 15.0353 27.9863 14.7007 28.4103 14.9305C29.5063 15.5246 31.3136 16.0642 33.9472 15.9392C38.0123 15.7462 43.8332 16.977 46.2756 17.6263C46.3018 17.6333 46.3234 17.6408 46.348 17.6522C47.0147 17.9598 51.245 20.0923 52.2023 24.8409C52.7399 27.508 52.5309 30.7066 51.7244 32.6463Z" fill="#EC519E"/>
<path d="M65.5 20.25C65.5 16.75 61.6667 12.25 59.5 9.75C57.3333 12.4167 53.5 17 53.5 20.25C53.5 23.5 55.5 26.25 59.5 26.25C63.5 26.25 65.5 23.2914 65.5 20.25Z" fill="#9D3D97"/>
<path d="M70.6396 22.1016H77.1436V24H67.8447V21.9258C69.5791 20.5195 70.9473 19.3301 71.9492 18.3574C72.8398 17.4961 73.458 16.7725 73.8037 16.1865C74.1084 15.6709 74.2607 15.1934 74.2607 14.7539C74.2607 14.2617 74.0703 13.8545 73.6895 13.5322C73.3789 13.2686 72.96 13.1367 72.4326 13.1367C71.3193 13.1367 70.7539 13.7578 70.7363 15H68.1787C68.1787 14.291 68.3076 13.6992 68.5654 13.2246C68.8584 12.6797 69.251 12.2725 69.7432 12.0029C70.5283 11.5693 71.4395 11.3525 72.4766 11.3525C73.2383 11.3525 73.9561 11.4844 74.6299 11.748C75.3096 12.0176 75.8398 12.4482 76.2207 13.04C76.5371 13.5381 76.6953 14.1064 76.6953 14.7451C76.6953 15.4775 76.4844 16.2012 76.0625 16.916C75.2363 18.3047 73.4287 20.0332 70.6396 22.1016ZM83.4541 11.3438C84.5439 11.3438 85.4814 11.6514 86.2666 12.2666C87.0459 12.876 87.6055 13.8105 87.9453 15.0703C88.168 15.9082 88.2793 16.8457 88.2793 17.8828C88.2793 19.7227 87.8779 21.2373 87.0752 22.4268C86.6826 23.0068 86.1729 23.4551 85.5459 23.7715C84.9072 24.0879 84.2041 24.2461 83.4365 24.2461C82.499 24.2461 81.6523 24.0088 80.8965 23.5342C79.3672 22.5791 78.6025 20.707 78.6025 17.918C78.6025 16.8164 78.7549 15.7529 79.0596 14.7275C79.4463 13.4092 80.1523 12.4688 81.1777 11.9062C81.8633 11.5312 82.6221 11.3438 83.4541 11.3438ZM83.4629 13.2246C82.666 13.2246 82.0889 13.6084 81.7314 14.376C81.3213 15.2607 81.1162 16.4531 81.1162 17.9531C81.1162 20.8945 81.8867 22.3652 83.4277 22.3652C84.2949 22.3652 84.8984 21.9258 85.2383 21.0469C85.5898 20.1445 85.7656 19.0107 85.7656 17.6455C85.7656 14.6982 84.998 13.2246 83.4629 13.2246ZM92.4903 18.978L89.3223 14.172H92.3643L94.2723 17.304L96.1983 14.172H99.2403L96.0363 18.978L99.3843 24H96.3423L94.2723 20.634L92.2023 24H89.1603L92.4903 18.978ZM107.36 11.5986V24H104.864V13.9541C104.454 14.3291 103.924 14.6836 103.273 15.0176C102.74 15.2695 102.292 15.4365 101.929 15.5186V13.374C103.423 12.7471 104.483 12.1553 105.11 11.5986H107.36Z" fill="#9D3D97"/>
<defs>
<linearGradient id="paint0_linear_1999_20513" x1="52.7582" y1="58.1981" x2="23.6569" y2="7.79307" gradientUnits="userSpaceOnUse">
<stop stop-color="#DA5DB0"/>
<stop offset="1" stop-color="#924292"/>
</linearGradient>
</defs>
</svg>
