<svg width="86" height="77" viewBox="0 0 86 77" fill="none" xmlns="http://www.w3.org/2000/svg">
<g filter="url(#filter0_d_1633_19892)">
<path d="M7.32263 39.1045L23.7854 67.54C24.4239 68.6429 25.6039 69.3223 26.881 69.3223H59.8065C61.0836 69.3223 62.2636 68.6429 62.9021 67.54L79.3649 39.1045C80.0034 38.0017 80.0034 36.6429 79.3649 35.54L62.9021 7.10454C62.2636 6.00167 61.0836 5.32227 59.8065 5.32227L26.881 5.32227C25.6039 5.32227 24.4239 6.00166 23.7854 7.10454L7.32263 35.54C6.68412 36.6429 6.68412 38.0017 7.32263 39.1045Z" fill="white"/>
</g>
<path d="M18.5555 29.9322L15.3706 35.4487C14.8765 36.3045 14.8765 37.3589 15.3706 38.2147L28.1102 60.2803C28.6043 61.1361 29.5174 61.6633 30.5056 61.6633L55.9848 61.6633C56.973 61.6633 57.8862 61.1361 58.3803 60.2803L71.1199 38.2147C71.614 37.3589 71.614 36.3045 71.1199 35.4487L58.3803 13.383C57.8862 12.5272 56.973 12 55.9848 12L30.5056 12C29.5174 12 28.6043 12.5272 28.1102 13.383L24.9253 18.8994" stroke="url(#paint0_linear_1633_19892)" stroke-width="3" stroke-linecap="round"/>
<path d="M32 40.5C32 42.547 30.5494 44 29 44C27.4506 44 26 42.547 26 40.5C26 38.453 27.4506 37 29 37C30.5494 37 32 38.453 32 40.5Z" fill="white" stroke="#9D3D97" stroke-width="2"/>
<path d="M60 40.5C60 42.547 58.5494 44 57 44C55.4506 44 54 42.547 54 40.5C54 38.453 55.4506 37 57 37C58.5494 37 60 38.453 60 40.5Z" fill="white" stroke="#9D3D97" stroke-width="2"/>
<path d="M56 38C56 30.2019 50.1158 24 43 24C35.8842 24 30 30.2019 30 38C30 42.0275 30.8435 45.515 32.825 47.9801C34.7738 50.4047 37.954 52 43 52C48.046 52 51.2262 50.4047 53.175 47.9801C55.1565 45.515 56 42.0275 56 38Z" fill="white" stroke="#9D3D97" stroke-width="2"/>
<path d="M43.2222 42.6315C42.5111 42.6315 41.4444 42.2222 41 42C41.1481 42.6667 41.8 44 43.2222 44C44.6444 44 45 42.6667 45 42C44.7037 42.2222 43.9333 42.6315 43.2222 42.6315Z" fill="#9D3D97"/>
<path d="M46.3901 46H39.6099C39.2944 46 39.0633 46.2903 39.2068 46.5714C39.6432 47.4261 40.7524 48.5 43 48.5C45.2476 48.5 46.3568 47.4261 46.7932 46.5713C46.9367 46.2903 46.7056 46 46.3901 46Z" fill="#9D3D97"/>
<ellipse cx="37.25" cy="39.5" rx="2.25" ry="2.5" fill="#9D3D97"/>
<ellipse cx="48.625" cy="39.5" rx="2.25" ry="2.5" fill="#9D3D97"/>
<path d="M33.0322 33.7954C35.0764 31.8608 36.8878 28.4642 37.5684 26.8521C37.5684 27.8194 40.5431 31.0323 44.6247 32.1931C49.7268 33.644 53.1803 32.8281 54.2011 33.7954C55.0178 34.5692 54.7776 35.8715 55.1179 37C58.1804 34.5818 57.3906 28.3511 53.5833 24.4255C47.6488 18.3066 37.5684 19.3748 37.0644 22.5793C33.5362 22.0452 31.1281 24.9091 30.1048 27.3273C28.8796 30.2225 28.9168 34.0982 29.0869 35.5491C29.173 36.283 31.3475 35.3896 33.0322 33.7954Z" fill="#EC519E"/>
<defs>
<filter id="filter0_d_1633_19892" x="0.84375" y="0.322266" width="85" height="76" filterUnits="userSpaceOnUse" color-interpolation-filters="sRGB">
<feFlood flood-opacity="0" result="BackgroundImageFix"/>
<feColorMatrix in="SourceAlpha" type="matrix" values="0 0 0 0 0 0 0 0 0 0 0 0 0 0 0 0 0 0 127 0" result="hardAlpha"/>
<feOffset dy="1"/>
<feGaussianBlur stdDeviation="3"/>
<feComposite in2="hardAlpha" operator="out"/>
<feColorMatrix type="matrix" values="0 0 0 0 0.490196 0 0 0 0 0.243137 0 0 0 0 0.443137 0 0 0 0.25 0"/>
<feBlend mode="normal" in2="BackgroundImageFix" result="effect1_dropShadow_1633_19892"/>
<feBlend mode="normal" in="SourceGraphic" in2="effect1_dropShadow_1633_19892" result="shape"/>
</filter>
<linearGradient id="paint0_linear_1633_19892" x1="43.2452" y1="12" x2="43.2452" y2="61.6633" gradientUnits="userSpaceOnUse">
<stop stop-color="#DA5DB0"/>
<stop offset="1" stop-color="#924292"/>
</linearGradient>
</defs>
</svg>
