<svg width="86" height="78" viewBox="0 0 86 78" fill="none" xmlns="http://www.w3.org/2000/svg">
<g filter="url(#filter0_d_1633_20535)">
<path d="M7.05875 39.6221L23.5813 68.2401C24.2222 69.35 25.4065 70.0338 26.6881 70.0338H59.7333C61.015 70.0338 62.1993 69.35 62.8401 68.2401L79.3627 39.6221C80.0035 38.5122 80.0035 37.1447 79.3627 36.0347L62.8401 7.41676C62.1993 6.3068 61.015 5.62305 59.7333 5.62305L26.6881 5.62305C25.4065 5.62304 24.2222 6.3068 23.5813 7.41675L7.05875 36.0347C6.41792 37.1447 6.41792 38.5122 7.05875 39.6221Z" fill="white"/>
</g>
<path d="M17.957 45.1119L14.6755 39.4283C14.1664 38.5466 14.1664 37.4602 14.6755 36.5784L27.8013 13.844C28.3103 12.9623 29.2512 12.4191 30.2693 12.4191L56.5208 12.4191C57.539 12.4191 58.4798 12.9623 58.9889 13.844L72.1146 36.5784C72.6237 37.4602 72.6237 38.5466 72.1146 39.4283L58.9889 62.1628C58.4798 63.0445 57.539 63.5877 56.5208 63.5877L30.2693 63.5877C29.2512 63.5877 28.3103 63.0445 27.8013 62.1628L24.5198 56.4792" stroke="url(#paint0_linear_1633_20535)" stroke-width="3" stroke-linecap="round"/>
<path d="M26 33.9443C26 25.0179 34.301 18.4101 43 20.4118V20.4118V20.4118C51.699 18.4101 60 25.0179 60 33.9442V53.5C60 54.0523 59.5523 54.5 59 54.5H27C26.4477 54.5 26 54.0523 26 53.5V33.9443Z" fill="#EC519E"/>
<path d="M33 43.5C33 45.547 31.5494 47 30 47C28.4506 47 27 45.547 27 43.5C27 41.453 28.4506 40 30 40C31.5494 40 33 41.453 33 43.5Z" fill="white" stroke="#9D3D97" stroke-width="2"/>
<path d="M59 43.5C59 45.547 57.5494 47 56 47C54.4506 47 53 45.547 53 43.5C53 41.453 54.4506 40 56 40C57.5494 40 59 41.453 59 43.5Z" fill="white" stroke="#9D3D97" stroke-width="2"/>
<path d="M55 41.5C55 33.6289 49.4979 27.5 43 27.5C36.5021 27.5 31 33.6289 31 41.5C31 45.5402 31.7868 49.0398 33.6294 51.5085C35.4324 53.9242 38.3576 55.5 43 55.5C47.6424 55.5 50.5676 53.9242 52.3706 51.5085C54.2132 49.0398 55 45.5402 55 41.5Z" fill="white" stroke="#9D3D97" stroke-width="2"/>
<path d="M43.2222 44.6315C42.5111 44.6315 41.4444 44.2222 41 44C41.1481 44.6667 41.8 46 43.2222 46C44.6444 46 45 44.6667 45 44C44.7037 44.2222 43.9333 44.6315 43.2222 44.6315Z" fill="#9D3D97"/>
<path d="M34 33.2072C31.4071 36.0717 31.5 38.5 30.9996 40.498C29.5016 39.998 28.6013 37.8982 29.0013 35.4982C29.5013 32.4982 34.5013 26.4982 45.3104 26.9982C53.9577 27.3982 58.0396 35.1644 59 39.998C59 39.998 54.4151 39.9544 53.0013 37.4982C51.5998 35.0635 52.6699 31.122 52.6699 31.122C52.4557 31.5858 51.2008 33.206 49.1437 34.3172C47.0866 35.4283 45.9532 36.0895 45.3104 36.0899C45.5247 35.6265 46.1708 33.9891 46.2414 33.2072C46.4081 31.3626 45.4298 30.9615 45.0013 30.4982C44.3584 31.4249 41.9247 33.205 40.3819 34.3172C38.4533 35.7073 34.0325 37.1244 35 35.4982C36 33.8173 37.4312 31.698 37.6455 30.7717C37.8597 29.8453 36.7395 30.1808 34 33.2072Z" fill="#EC519E" stroke="#EC519E" stroke-width="2" stroke-linecap="round" stroke-linejoin="round"/>
<path d="M36.5 39.5L39.5 41L36.5 42.5" stroke="#9D3D97" stroke-width="1.2" stroke-linecap="round" stroke-linejoin="round"/>
<path d="M50 39.5L47 41.2222L50 42.5" stroke="#9D3D97" stroke-width="1.2" stroke-linecap="round" stroke-linejoin="round"/>
<path d="M46 49L44.75 48L43.5 49L42.25 48L41 49" stroke="#9D3D97" stroke-width="1.5" stroke-linecap="round" stroke-linejoin="round"/>
<path d="M41.7265 52.3947C41.0891 55.2368 37.7432 58.3158 36.1499 59.5C36.1499 58.7105 35.9109 56.9737 34.9549 56.3421C33.999 55.7105 30.8389 56.0789 29.3784 56.3421C29.644 55.6842 30.6373 55.2632 30 54C29.3627 52.7368 27.195 52.8684 26 53C27.3277 52.7368 30.24 51.7632 34 50C37.6462 48.2902 40.3987 45.5526 41.3281 44.5C41.7265 45.9474 42.3638 49.5526 41.7265 52.3947Z" fill="white" stroke="#9D3D97" stroke-width="1.5" stroke-linecap="round" stroke-linejoin="round"/>
<path d="M41.7309 52.3947C41.0936 55.2368 37.7476 58.3158 36.1543 59.5C36.1543 58.7105 35.9153 56.9737 34.9594 56.3421C34.0034 55.7105 30.8433 56.0789 29.3828 56.3421C30.7106 55.6842 33.588 55.2632 35.5 54C37.412 52.7368 38.6818 51.0526 39.3409 50.0263C40 49 41.3325 44.5 41.3325 44.5C41.7309 45.9474 42.3682 49.5526 41.7309 52.3947Z" fill="#9D3D97" stroke="#9D3D97" stroke-width="1.5" stroke-linecap="round" stroke-linejoin="round"/>
<defs>
<filter id="filter0_d_1633_20535" x="0.578125" y="0.623047" width="85.2656" height="76.4111" filterUnits="userSpaceOnUse" color-interpolation-filters="sRGB">
<feFlood flood-opacity="0" result="BackgroundImageFix"/>
<feColorMatrix in="SourceAlpha" type="matrix" values="0 0 0 0 0 0 0 0 0 0 0 0 0 0 0 0 0 0 127 0" result="hardAlpha"/>
<feOffset dy="1"/>
<feGaussianBlur stdDeviation="3"/>
<feComposite in2="hardAlpha" operator="out"/>
<feColorMatrix type="matrix" values="0 0 0 0 0.490196 0 0 0 0 0.243137 0 0 0 0 0.443137 0 0 0 0.25 0"/>
<feBlend mode="normal" in2="BackgroundImageFix" result="effect1_dropShadow_1633_20535"/>
<feBlend mode="normal" in="SourceGraphic" in2="effect1_dropShadow_1633_20535" result="shape"/>
</filter>
<linearGradient id="paint0_linear_1633_20535" x1="57.9457" y1="63.2059" x2="28.8444" y2="12.8009" gradientUnits="userSpaceOnUse">
<stop stop-color="#DA5DB0"/>
<stop offset="1" stop-color="#924292"/>
</linearGradient>
</defs>
</svg>
