<svg width="86" height="77" viewBox="0 0 86 77" fill="none" xmlns="http://www.w3.org/2000/svg">
<g filter="url(#filter0_d_1633_21963)">
<path d="M7.05701 39.4034L23.5198 67.8388C24.1583 68.9417 25.3383 69.6211 26.6153 69.6211H59.5409C60.8179 69.6211 61.9979 68.9417 62.6365 67.8388L79.0992 39.4034C79.7378 38.3005 79.7378 36.9417 79.0992 35.8388L62.6365 7.40336C61.9979 6.30049 60.8179 5.62109 59.5409 5.6211L26.6153 5.62109C25.3383 5.62109 24.1583 6.30049 23.5198 7.40336L7.05701 35.8388C6.4185 36.9417 6.4185 38.3005 7.05701 39.4034Z" fill="white"/>
</g>
<path d="M35.405 25.3874C34.7978 25.5472 33.6791 26.1161 34.0627 27.1133C34.3779 27.933 35.1035 28.7225 35.6004 29.1728C35.7788 29.3346 35.9095 29.5448 35.955 29.7813L36.3639 31.9076M35.405 25.3874L51.9153 25.3874M35.405 25.3874L34.0627 19.9999M36.3639 31.9076C35.8205 32.2272 34.7339 33.0007 34.7339 33.5376C34.7339 34.0746 35.5009 34.912 35.8845 35.2635M36.3639 31.9076L50.9564 31.9076M35.8845 35.2635C35.5009 35.4234 34.7339 35.9923 34.7339 36.9895C34.7339 37.9867 35.5009 38.3638 35.8845 38.4278M35.8845 35.2635L51.4358 35.2635M35.8845 38.4278L36.3302 41.1912C36.3524 41.329 36.3455 41.4699 36.31 41.6049L36.1645 42.1579C36.0144 42.7284 36.3882 43.3042 36.9704 43.3993L39.744 43.8521C40.2277 43.9311 40.5829 44.349 40.5829 44.8391L40.5829 45.293C40.5829 45.8453 41.0306 46.293 41.5829 46.293L45.3128 46.293C45.8651 46.293 46.3128 45.8453 46.3128 45.293L46.3128 44.8505C46.3128 44.3554 46.6751 43.9348 47.1647 43.8615L50.3331 43.3871C50.9217 43.299 51.3035 42.7193 51.1521 42.1437L51.0103 41.6049C50.9748 41.4699 50.9679 41.329 50.9901 41.1912L51.4358 38.4278M35.8845 38.4278L51.4358 38.4278M51.9153 25.3874C52.5225 25.5472 53.6412 26.1161 53.2576 27.1133C52.9424 27.933 52.2168 28.7225 51.7199 29.1728C51.5415 29.3346 51.4108 29.5448 51.3653 29.7813L50.9564 31.9076M51.9153 25.3874L53.2608 19.9999M50.9564 31.9076C51.4998 32.2272 52.5865 33.0007 52.5865 33.5376C52.5865 34.0746 51.8194 34.912 51.4358 35.2635M51.4358 35.2635C51.8194 35.4234 52.5865 35.9923 52.5865 36.9895C52.5865 37.9867 51.8194 38.3638 51.4358 38.4278" stroke="#9D3D97" stroke-width="2" stroke-linecap="round"/>
<path d="M46.5 54.7273C46.5 52.8182 44.5833 50.3636 43.5 49C42.4167 50.4545 40.5 52.9545 40.5 54.7273C40.5 56.5 41.5 58 43.5 58C45.5 58 46.5 56.3862 46.5 54.7273Z" fill="#EC519E"/>
<path d="M36.828 12.4219L30.2651 12.4219C29.2469 12.4219 28.3061 12.9651 27.797 13.8468L14.6713 36.5812C14.1622 37.463 14.1622 38.5494 14.6713 39.4311L27.797 62.1656C28.3061 63.0473 29.2469 63.5905 30.2651 63.5905L56.5166 63.5905C57.5347 63.5905 58.4756 63.0473 58.9846 62.1656L72.1104 39.4311C72.6195 38.5494 72.6195 37.463 72.1104 36.5812L58.9846 13.8468C58.4756 12.9651 57.5347 12.4219 56.5166 12.4219L49.9537 12.4219" stroke="url(#paint0_linear_1633_21963)" stroke-width="3" stroke-linecap="round"/>
<defs>
<filter id="filter0_d_1633_21963" x="0.578125" y="0.621094" width="85" height="76" filterUnits="userSpaceOnUse" color-interpolation-filters="sRGB">
<feFlood flood-opacity="0" result="BackgroundImageFix"/>
<feColorMatrix in="SourceAlpha" type="matrix" values="0 0 0 0 0 0 0 0 0 0 0 0 0 0 0 0 0 0 127 0" result="hardAlpha"/>
<feOffset dy="1"/>
<feGaussianBlur stdDeviation="3"/>
<feComposite in2="hardAlpha" operator="out"/>
<feColorMatrix type="matrix" values="0 0 0 0 0.490196 0 0 0 0 0.243137 0 0 0 0 0.443137 0 0 0 0.25 0"/>
<feBlend mode="normal" in2="BackgroundImageFix" result="effect1_dropShadow_1633_21963"/>
<feBlend mode="normal" in="SourceGraphic" in2="effect1_dropShadow_1633_21963" result="shape"/>
</filter>
<linearGradient id="paint0_linear_1633_21963" x1="72.4922" y1="38.0062" x2="14.2895" y2="38.0062" gradientUnits="userSpaceOnUse">
<stop stop-color="#DA5DB0"/>
<stop offset="1" stop-color="#924292"/>
</linearGradient>
</defs>
</svg>
