<svg width="74" height="66" viewBox="0 0 74 66" fill="none" xmlns="http://www.w3.org/2000/svg">
<path d="M1.27576 34.7491L17.7385 63.1845C18.3771 64.2874 19.5571 64.9668 20.8341 64.9668H53.7597C55.0367 64.9668 56.2167 64.2874 56.8552 63.1845L73.318 34.7491C73.9565 33.6462 73.9565 32.2874 73.318 31.1845L56.8552 2.74907C56.2167 1.64619 55.0367 0.966799 53.7597 0.966799L20.8341 0.966797C19.5571 0.966797 18.3771 1.64619 17.7385 2.74906L1.27576 31.1845C0.637247 32.2874 0.637248 33.6462 1.27576 34.7491Z" fill="white"/>
<path d="M12.6505 26.4149L9.38048 32.0798C8.87317 32.9586 8.87317 34.0414 9.38048 34.9202L22.4605 57.5798C22.9678 58.4586 23.9054 59 24.92 59H51.08C52.0946 59 53.0322 58.4586 53.5395 57.5798L66.6195 34.9202C67.1268 34.0414 67.1268 32.9586 66.6195 32.0798L53.5395 9.42025C53.0322 8.5414 52.0946 8 51.08 8L24.92 8C23.9054 8 22.9678 8.5414 22.4605 9.42025L19.1905 15.0851" stroke="url(#paint0_linear_1678_18415)" stroke-width="3" stroke-linecap="round"/>
<mask id="path-3-inside-1_1678_18415" fill="white">
<path fill-rule="evenodd" clip-rule="evenodd" d="M44.1275 39.2702C44.2102 38.3602 44.7177 37.5542 45.4179 36.9672C48.1386 34.6863 49.8684 31.2623 49.8684 27.4342C49.8684 20.567 44.3014 15 37.4342 15C30.567 15 25 20.567 25 27.4342C25 31.4352 26.8897 34.9948 29.8252 37.2692C30.5855 37.8583 31.1417 38.6976 31.2288 39.6554L31.5025 42.6663C31.643 44.2116 32.9386 45.3947 34.4902 45.3947H40.8311C42.3827 45.3947 43.6783 44.2116 43.8188 42.6663L44.1275 39.2702Z"/>
</mask>
<path d="M29.8252 37.2692L28.6003 38.8502L29.8252 37.2692ZM31.2288 39.6554L29.237 39.8365L31.2288 39.6554ZM45.4179 36.9672L44.133 35.4346L45.4179 36.9672ZM47.8684 27.4342C47.8684 30.6459 46.4198 33.5174 44.133 35.4346L46.7028 38.4998C49.8573 35.8552 51.8684 31.8786 51.8684 27.4342H47.8684ZM37.4342 17C43.1969 17 47.8684 21.6716 47.8684 27.4342H51.8684C51.8684 19.4624 45.406 13 37.4342 13V17ZM27 27.4342C27 21.6716 31.6716 17 37.4342 17V13C29.4624 13 23 19.4624 23 27.4342H27ZM31.0502 35.6882C28.5825 33.7763 27 30.7905 27 27.4342H23C23 32.0798 25.1969 36.2133 28.6003 38.8502L31.0502 35.6882ZM33.4943 42.4853L33.2206 39.4743L29.237 39.8365L29.5107 42.8474L33.4943 42.4853ZM40.8311 43.3947H34.4902V47.3947H40.8311V43.3947ZM42.1357 39.0892L41.827 42.4853L45.8105 42.8474L46.1193 39.4513L42.1357 39.0892ZM29.5107 42.8474C29.7449 45.4228 31.9042 47.3947 34.4902 47.3947V43.3947C33.973 43.3947 33.5411 43.0003 33.4943 42.4853L29.5107 42.8474ZM28.6003 38.8502C29.0301 39.1833 29.2114 39.5546 29.237 39.8365L33.2206 39.4743C33.072 37.8405 32.1409 36.5333 31.0502 35.6882L28.6003 38.8502ZM40.8311 47.3947C43.4171 47.3947 45.5764 45.4228 45.8105 42.8474L41.827 42.4853C41.7801 43.0003 41.3483 43.3947 40.8311 43.3947V47.3947ZM44.133 35.4346C43.1264 36.2785 42.2768 37.5374 42.1357 39.0892L46.1193 39.4513C46.1437 39.183 46.309 38.83 46.7028 38.4998L44.133 35.4346Z" fill="#9D3D97" mask="url(#path-3-inside-1_1678_18415)"/>
<circle cx="37.4305" cy="27.4344" r="7.82895" fill="#EC519E"/>
<path d="M33.3672 44.5527L41.4988 44.5527L41.4988 45.3948V49.0001L33.3672 49.0001L33.3672 48.158V44.5527Z" stroke="#9D3D97" stroke-width="2"/>
<defs>
<linearGradient id="paint0_linear_1678_18415" x1="38" y1="8" x2="38" y2="59" gradientUnits="userSpaceOnUse">
<stop stop-color="#DA5DB0"/>
<stop offset="1" stop-color="#924292"/>
</linearGradient>
</defs>
</svg>
