<svg width="111" height="66" viewBox="0 0 111 66" fill="none" xmlns="http://www.w3.org/2000/svg">
<path d="M1.77365 34.9663L18.2962 63.5842C18.9371 64.6942 20.1214 65.3779 21.403 65.3779L54.4482 65.3779C55.7299 65.3779 56.9142 64.6942 57.555 63.5842L61.6857 56.4297L69.9469 42.1207L74.0776 34.9663C74.7184 33.8563 74.7184 32.4888 74.0776 31.3788L57.555 2.76088C56.9142 1.65093 55.7299 0.967172 54.4482 0.967174L21.403 0.967172C20.1214 0.967169 18.9371 1.65093 18.2962 2.76088L1.77365 31.3788C1.13282 32.4888 1.13282 33.8563 1.77365 34.9663Z" fill="white"/>
<path d="M63.6602 40.1012L66.9417 34.4176C67.4507 33.5358 67.4507 32.4495 66.9417 31.5677L53.8159 8.83328C53.3068 7.95152 52.366 7.40834 51.3479 7.40834L25.0964 7.40833C24.0782 7.40833 23.1374 7.95152 22.6283 8.83327L9.5026 31.5677C8.99352 32.4495 8.99352 33.5358 9.5026 34.4176L22.6283 57.152C23.1374 58.0338 24.0782 58.577 25.0964 58.577L51.3479 58.577C52.366 58.577 53.3068 58.0338 53.8159 57.152L57.0974 51.4684" stroke="url(#paint0_linear_2136_19765)" stroke-width="3" stroke-linecap="round"/>
<path d="M50.1552 23H26.5C25.3954 23 24.5 23.8954 24.5 25V43C24.5 44.1046 25.3954 45 26.5 45H50.1552C51.2597 45 52.1552 44.1046 52.1552 43V34.7908V28.1582V25C52.1552 23.8954 51.2597 23 50.1552 23Z" stroke="#9D3D97" stroke-width="2" stroke-linecap="round"/>
<mask id="path-4-inside-1_2136_19765" fill="white">
<path d="M29.5 20C29.5 19.4477 29.9477 19 30.5 19H33.5C34.0523 19 34.5 19.4477 34.5 20V22H29.5V20Z"/>
</mask>
<path d="M29.5 20C29.5 19.4477 29.9477 19 30.5 19H33.5C34.0523 19 34.5 19.4477 34.5 20V22H29.5V20Z" stroke="#9D3D97" stroke-width="3" mask="url(#path-4-inside-1_2136_19765)"/>
<mask id="path-5-inside-2_2136_19765" fill="white">
<path d="M42.5 20C42.5 19.4477 42.9477 19 43.5 19H46.5C47.0523 19 47.5 19.4477 47.5 20V22H42.5V20Z"/>
</mask>
<path d="M42.5 20C42.5 19.4477 42.9477 19 43.5 19H46.5C47.0523 19 47.5 19.4477 47.5 20V22H42.5V20Z" stroke="#9D3D97" stroke-width="3" mask="url(#path-5-inside-2_2136_19765)"/>
<rect x="29.5" y="28" width="4" height="4" fill="#EC519E" stroke="#EC519E" stroke-width="2"/>
<rect x="29.5" y="36" width="4" height="4" fill="#EC519E" stroke="#EC519E" stroke-width="2"/>
<rect x="36.5" y="28" width="4" height="4" fill="#EC519E" stroke="#EC519E" stroke-width="2"/>
<rect x="36.5" y="36" width="4" height="4" fill="#EC519E" stroke="#EC519E" stroke-width="2"/>
<rect x="43.5" y="28" width="4" height="4" fill="#EC519E" stroke="#EC519E" stroke-width="2"/>
<rect x="43.5" y="36" width="4" height="4" fill="#EC519E" stroke="#EC519E" stroke-width="2"/>
<defs>
<linearGradient id="paint0_linear_2136_19765" x1="23.6715" y1="58.1951" x2="52.7728" y2="7.79014" gradientUnits="userSpaceOnUse">
<stop stop-color="#DA5DB0"/>
<stop offset="1" stop-color="#924292"/>
</linearGradient>
</defs>
</svg>
