<svg width="111" height="66" viewBox="0 0 111 66" fill="none" xmlns="http://www.w3.org/2000/svg">
<path d="M1.77365 34.9663L18.2962 63.5842C18.9371 64.6942 20.1214 65.3779 21.403 65.3779L54.4482 65.3779C55.7299 65.3779 56.9142 64.6942 57.555 63.5842L61.6857 56.4297L69.9469 42.1207L74.0776 34.9663C74.7184 33.8563 74.7184 32.4888 74.0776 31.3788L57.555 2.76088C56.9142 1.65093 55.7299 0.967172 54.4482 0.967174L21.403 0.967172C20.1214 0.967169 18.9371 1.65093 18.2962 2.76088L1.77365 31.3788C1.13282 32.4888 1.13282 33.8563 1.77365 34.9663Z" fill="white"/>
<path d="M12.7773 25.8851L9.49584 31.5687C8.98676 32.4505 8.98676 33.5369 9.49584 34.4186L22.6216 57.1531C23.1307 58.0348 24.0715 58.578 25.0896 58.578L51.3411 58.578C52.3593 58.578 53.3001 58.0348 53.8092 57.1531L66.9349 34.4186C67.444 33.5369 67.444 32.4505 66.9349 31.5687L53.8092 8.83431C53.3001 7.95255 52.3593 7.40937 51.3411 7.40937L25.0896 7.40937C24.0715 7.40937 23.1307 7.95255 22.6216 8.83431L19.3401 14.5179" stroke="url(#paint0_linear_2136_19853)" stroke-width="3" stroke-linecap="round"/>
<path d="M34.5 40C32.2143 40 30.9626 40.9674 30.5 41.2605V48.8235C31.6429 49.2157 34.8429 50 38.5 50C42.1571 50 45.3571 48.9542 46.5 48.4314V40.9804C45.9286 41.3165 45.2592 41.7647 41.9286 41.7647C38.598 41.7647 37.3571 40 34.5 40Z" fill="#EC519E"/>
<path d="M44.5677 18.7101C46.2234 19.0684 47.6125 19.5082 48.4751 19.9218L47.3019 48.056C46.1937 48.6303 43.0706 50 38.5 50C33.9294 50 30.8063 48.6303 29.6981 48.056L28.5219 19.848C28.7441 19.7284 29.0698 19.5838 29.5155 19.4274C30.2444 19.1716 31.1693 18.9258 32.1958 18.7117C34.2526 18.2828 36.6273 18 38.5 18C40.3686 18 42.5878 18.2817 44.5677 18.7101Z" stroke="#9D3D97" stroke-width="2"/>
<defs>
<linearGradient id="paint0_linear_2136_19853" x1="52.766" y1="7.79118" x2="23.6647" y2="58.1962" gradientUnits="userSpaceOnUse">
<stop stop-color="#DA5DB0"/>
<stop offset="1" stop-color="#924292"/>
</linearGradient>
</defs>
</svg>
