<svg width="111" height="66" viewBox="0 0 111 66" fill="none" xmlns="http://www.w3.org/2000/svg">
<path d="M1.77365 34.9663L18.2962 63.5842C18.9371 64.6942 20.1214 65.3779 21.403 65.3779L54.4482 65.3779C55.7299 65.3779 56.9142 64.6942 57.555 63.5842L61.6857 56.4297L69.9469 42.1207L74.0776 34.9663C74.7184 33.8563 74.7184 32.4888 74.0776 31.3788L57.555 2.76088C56.9142 1.65093 55.7299 0.967172 54.4482 0.967174L21.403 0.967172C20.1214 0.967169 18.9371 1.65093 18.2962 2.76088L1.77365 31.3788C1.13282 32.4888 1.13282 33.8563 1.77365 34.9663Z" fill="white"/>
<path d="M63.6524 40.1022L66.9338 34.4186C67.4429 33.5368 67.4429 32.4504 66.9338 31.5687L53.8081 8.83425C53.299 7.9525 52.3582 7.40931 51.34 7.40931L25.0886 7.40931C24.0704 7.40931 23.1296 7.95249 22.6205 8.83425L9.49479 31.5687C8.9857 32.4504 8.9857 33.5368 9.49479 34.4186L22.6205 57.153C23.1296 58.0348 24.0704 58.5779 25.0886 58.5779L51.34 58.5779C52.3582 58.5779 53.299 58.0348 53.8081 57.153L57.0896 51.4694" stroke="url(#paint0_linear_2136_19984)" stroke-width="3" stroke-linecap="round"/>
<path d="M40.0467 33C41.1146 33 42.4986 34 42.4986 34.8C42.6621 34 43.9697 33 44.9505 33C46.4216 33 47.8975 35 47.4024 36.5C46.4638 39.3433 42.4986 42 42.4986 42C42.4986 42 38.1608 38.8296 37.5948 36.5C37.1089 34.5 38.5756 33 40.0467 33Z" fill="#EC519E"/>
<path d="M39.3438 18C41.7663 18.5063 46.1016 20.0655 45.8327 22.557C45.5731 24.962 43.6697 24.9198 42.9776 24.5823C45.7894 25.7215 51.6727 31.2152 51.1536 36.9873C50.6345 42.7595 46.8277 44.1181 45.1838 44.962C44.7945 45.173 44.0937 46.0759 44.4051 48" stroke="#9D3D97" stroke-width="2" stroke-linecap="round"/>
<path d="M29.1198 18C29.0748 20.0851 29.5241 24.5106 30.1995 26.4255C31.0212 28.7549 33.3263 33.7441 31.8421 36.5526C30.3191 39.4347 27.5003 41.3591 27.5 44.5532C27.4997 47.234 27.8147 47.8298 27.7697 48" stroke="#9D3D97" stroke-width="2" stroke-linecap="round"/>
<circle cx="59" cy="18.5" r="8.5" fill="#9D3D97"/>
<path d="M60.1641 12.9766L59.8906 20.9922H58.4062L58.1953 12.9766H60.1641ZM60.0703 22.0391V24H58.1953V22.0391H60.0703Z" fill="#FAFAFA"/>
<defs>
<linearGradient id="paint0_linear_2136_19984" x1="23.6636" y1="58.1961" x2="52.765" y2="7.79112" gradientUnits="userSpaceOnUse">
<stop stop-color="#DA5DB0"/>
<stop offset="1" stop-color="#924292"/>
</linearGradient>
</defs>
</svg>
