<svg width="86" height="77" viewBox="0 0 86 77" fill="none" xmlns="http://www.w3.org/2000/svg">
<g filter="url(#filter0_d_2046_21818)">
<path d="M7.27576 39.7491L23.7385 68.1845C24.3771 69.2874 25.5571 69.9668 26.8341 69.9668H59.7597C61.0367 69.9668 62.2167 69.2874 62.8552 68.1845L79.318 39.7491C79.9565 38.6462 79.9565 37.2874 79.318 36.1845L62.8552 7.74907C62.2167 6.64619 61.0367 5.9668 59.7597 5.9668L26.8341 5.9668C25.5571 5.9668 24.3771 6.64619 23.7385 7.74906L7.27576 36.1845C6.63725 37.2874 6.63725 38.6462 7.27576 39.7491Z" fill="white"/>
</g>
<path d="M18.6505 31.4149L15.3805 37.0798C14.8732 37.9586 14.8732 39.0414 15.3805 39.9202L28.4605 62.5798C28.9678 63.4586 29.9054 64 30.92 64H57.08C58.0946 64 59.0322 63.4586 59.5395 62.5798L72.6195 39.9202C73.1268 39.0414 73.1268 37.9586 72.6195 37.0798L59.5395 14.4202C59.0322 13.5414 58.0946 13 57.08 13L30.92 13C29.9054 13 28.9678 13.5414 28.4605 14.4202L25.1905 20.0851" stroke="url(#paint0_linear_2046_21818)" stroke-width="3" stroke-linecap="round"/>
<mask id="path-3-inside-1_2046_21818" fill="white">
<path fill-rule="evenodd" clip-rule="evenodd" d="M50.1275 44.2702C50.2102 43.3602 50.7177 42.5542 51.4179 41.9672C54.1386 39.6863 55.8684 36.2623 55.8684 32.4342C55.8684 25.567 50.3014 20 43.4342 20C36.567 20 31 25.567 31 32.4342C31 36.4352 32.8897 39.9948 35.8252 42.2692C36.5855 42.8583 37.1417 43.6976 37.2288 44.6554L37.5025 47.6663C37.643 49.2116 38.9386 50.3947 40.4902 50.3947H46.8311C48.3827 50.3947 49.6783 49.2116 49.8188 47.6663L50.1275 44.2702Z"/>
</mask>
<path d="M35.8252 42.2692L34.6003 43.8502L35.8252 42.2692ZM37.2288 44.6554L35.237 44.8365L37.2288 44.6554ZM51.4179 41.9672L50.133 40.4346L51.4179 41.9672ZM53.8684 32.4342C53.8684 35.6459 52.4198 38.5174 50.133 40.4346L52.7028 43.4998C55.8573 40.8552 57.8684 36.8786 57.8684 32.4342H53.8684ZM43.4342 22C49.1969 22 53.8684 26.6716 53.8684 32.4342H57.8684C57.8684 24.4624 51.406 18 43.4342 18V22ZM33 32.4342C33 26.6716 37.6716 22 43.4342 22V18C35.4624 18 29 24.4624 29 32.4342H33ZM37.0502 40.6882C34.5825 38.7763 33 35.7905 33 32.4342H29C29 37.0798 31.1969 41.2133 34.6003 43.8502L37.0502 40.6882ZM39.4943 47.4853L39.2206 44.4743L35.237 44.8365L35.5107 47.8474L39.4943 47.4853ZM46.8311 48.3947H40.4902V52.3947H46.8311V48.3947ZM48.1357 44.0892L47.827 47.4853L51.8105 47.8474L52.1193 44.4513L48.1357 44.0892ZM35.5107 47.8474C35.7449 50.4228 37.9042 52.3947 40.4902 52.3947V48.3947C39.973 48.3947 39.5411 48.0003 39.4943 47.4853L35.5107 47.8474ZM34.6003 43.8502C35.0301 44.1833 35.2114 44.5546 35.237 44.8365L39.2206 44.4743C39.072 42.8405 38.1409 41.5333 37.0502 40.6882L34.6003 43.8502ZM46.8311 52.3947C49.4171 52.3947 51.5764 50.4228 51.8105 47.8474L47.827 47.4853C47.7801 48.0003 47.3483 48.3947 46.8311 48.3947V52.3947ZM50.133 40.4346C49.1264 41.2785 48.2768 42.5374 48.1357 44.0892L52.1193 44.4513C52.1437 44.183 52.309 43.83 52.7028 43.4998L50.133 40.4346Z" fill="#9D3D97" mask="url(#path-3-inside-1_2046_21818)"/>
<circle cx="43.4305" cy="32.4344" r="7.82895" fill="#EC519E"/>
<path d="M39.3672 54.0001L39.3672 53.9218L47.4988 51.7041V54.0001H39.3672ZM47.4988 49.631L39.3672 51.8487V49.5527L47.4988 49.5527L47.4988 49.631Z" stroke="#9D3D97" stroke-width="2"/>
<defs>
<filter id="filter0_d_2046_21818" x="0.796875" y="0.966797" width="85" height="76" filterUnits="userSpaceOnUse" color-interpolation-filters="sRGB">
<feFlood flood-opacity="0" result="BackgroundImageFix"/>
<feColorMatrix in="SourceAlpha" type="matrix" values="0 0 0 0 0 0 0 0 0 0 0 0 0 0 0 0 0 0 127 0" result="hardAlpha"/>
<feOffset dy="1"/>
<feGaussianBlur stdDeviation="3"/>
<feComposite in2="hardAlpha" operator="out"/>
<feColorMatrix type="matrix" values="0 0 0 0 0.490196 0 0 0 0 0.243137 0 0 0 0 0.443137 0 0 0 0.25 0"/>
<feBlend mode="normal" in2="BackgroundImageFix" result="effect1_dropShadow_2046_21818"/>
<feBlend mode="normal" in="SourceGraphic" in2="effect1_dropShadow_2046_21818" result="shape"/>
</filter>
<linearGradient id="paint0_linear_2046_21818" x1="44" y1="13" x2="44" y2="64" gradientUnits="userSpaceOnUse">
<stop stop-color="#DA5DB0"/>
<stop offset="1" stop-color="#924292"/>
</linearGradient>
</defs>
</svg>
