<svg width="86" height="77" viewBox="0 0 86 77" fill="none" xmlns="http://www.w3.org/2000/svg">
<g filter="url(#filter0_d_1755_19900)">
<path d="M7.32263 39.1045L23.7854 67.54C24.4239 68.6429 25.6039 69.3223 26.881 69.3223H59.8065C61.0836 69.3223 62.2636 68.6429 62.9021 67.54L79.3649 39.1045C80.0034 38.0017 80.0034 36.6429 79.3649 35.54L62.9021 7.10454C62.2636 6.00167 61.0836 5.32227 59.8065 5.32227L26.881 5.32227C25.6039 5.32227 24.4239 6.00166 23.7854 7.10454L7.32263 35.54C6.68412 36.6429 6.68412 38.0017 7.32263 39.1045Z" fill="white"/>
</g>
<path d="M49.9867 42.943C48.6051 46.6341 44.7832 48 41.4834 48C38.2228 48 36.5949 46.8082 35.4072 45.9387L35.3645 45.9074C34.1049 44.9857 32.5454 43.4661 31.5066 41.7597C30.4479 40.0206 26.6622 37.382 26.2017 36.3166C25.7411 35.2511 25.9672 33.8531 27.9628 33.7009C29.9585 33.5487 32.1512 39.1723 34.1161 38.2591C36.42 37.1885 34.1164 30.8012 33.5024 29.4314C32.8883 28.0616 30.4321 21.3647 31.9672 20.2993C33.5024 19.2339 34.6178 20.3654 35.3645 22.1918C36.0779 23.9368 38.1061 30.8012 39.6412 30.8012C41.1763 30.8012 39.9438 24.4139 39.9438 22.1918C39.9438 20.3403 40.5457 17.8545 42.2343 18.0067C43.9229 18.1589 43.82 20.9711 43.82 23.0637C43.82 25.0472 43.3255 30.4968 44.5536 30.8012C45.7817 31.1056 47.7774 20.1471 50.2336 20.2993C52.6898 20.4515 51.3962 23.9356 50.5153 26.2352C49.752 28.2276 48.0844 32.1711 49.4661 32.6277C50.8477 33.0843 52.8534 27.2488 54.7438 27.2488C56.8094 27.2488 55.9772 29.4314 54.7438 30.8012C53.3707 32.3264 52.2772 34.224 51.6152 35.5195C51.125 36.4791 51.6505 38.498 49.9867 42.943Z" stroke="#9D3D97" stroke-width="2"/>
<circle cx="45.5" cy="38" r="1.5" fill="#EC519E"/>
<circle cx="39.5" cy="39" r="1.5" fill="#EC519E"/>
<circle cx="42.5" cy="42" r="1.5" fill="#EC519E"/>
<circle cx="40.5" cy="45" r="1.5" fill="#EC519E"/>
<circle cx="46.5" cy="42" r="1.5" fill="#EC519E"/>
<path d="M60.0181 43.1805L56.625 42.4894L57.2826 44.5674L54.0391 44.1875" stroke="#EC519E" stroke-width="2" stroke-linecap="round" stroke-linejoin="round"/>
<path d="M56.7115 50.1572L54.2023 47.7708L53.6569 49.8811L51.1094 47.8379" stroke="#EC519E" stroke-width="2" stroke-linecap="round" stroke-linejoin="round"/>
<path d="M50.8009 55.3041L49.7454 52.0061L48.2539 53.5955L47 50.5801" stroke="#EC519E" stroke-width="2" stroke-linecap="round" stroke-linejoin="round"/>
<path d="M18.5555 29.9322L15.3706 35.4487C14.8765 36.3045 14.8765 37.3589 15.3706 38.2147L28.1102 60.2803C28.6043 61.1361 29.5174 61.6633 30.5056 61.6633L55.9848 61.6633C56.973 61.6633 57.8862 61.1361 58.3803 60.2803L71.1199 38.2147C71.614 37.3589 71.614 36.3045 71.1199 35.4487L58.3803 13.383C57.8862 12.5272 56.973 12 55.9848 12L30.5056 12C29.5174 12 28.6043 12.5272 28.1102 13.383L24.9253 18.8994" stroke="url(#paint0_linear_1755_19900)" stroke-width="3" stroke-linecap="round"/>
<defs>
<filter id="filter0_d_1755_19900" x="0.84375" y="0.322266" width="85" height="76" filterUnits="userSpaceOnUse" color-interpolation-filters="sRGB">
<feFlood flood-opacity="0" result="BackgroundImageFix"/>
<feColorMatrix in="SourceAlpha" type="matrix" values="0 0 0 0 0 0 0 0 0 0 0 0 0 0 0 0 0 0 127 0" result="hardAlpha"/>
<feOffset dy="1"/>
<feGaussianBlur stdDeviation="3"/>
<feComposite in2="hardAlpha" operator="out"/>
<feColorMatrix type="matrix" values="0 0 0 0 0.490196 0 0 0 0 0.243137 0 0 0 0 0.443137 0 0 0 0.25 0"/>
<feBlend mode="normal" in2="BackgroundImageFix" result="effect1_dropShadow_1755_19900"/>
<feBlend mode="normal" in="SourceGraphic" in2="effect1_dropShadow_1755_19900" result="shape"/>
</filter>
<linearGradient id="paint0_linear_1755_19900" x1="43.2452" y1="12" x2="43.2452" y2="61.6633" gradientUnits="userSpaceOnUse">
<stop stop-color="#DA5DB0"/>
<stop offset="1" stop-color="#924292"/>
</linearGradient>
</defs>
</svg>
