<svg width="74" height="67" viewBox="0 0 74 67" fill="none" xmlns="http://www.w3.org/2000/svg">
<path d="M1.32263 35.6045L17.7854 64.04C18.4239 65.1429 19.6039 65.8223 20.881 65.8223H53.8065C55.0836 65.8223 56.2636 65.1429 56.9021 64.04L73.3649 35.6045C74.0034 34.5017 74.0034 33.1429 73.3649 32.04L56.9021 3.60454C56.2636 2.50167 55.0836 1.82227 53.8065 1.82227L20.881 1.82227C19.6039 1.82227 18.4239 2.50166 17.7854 3.60454L1.32263 32.04C0.684123 33.1429 0.684122 34.5017 1.32263 35.6045Z" fill="white"/>
<path d="M12.5555 26.4322L9.37058 31.9487C8.87647 32.8045 8.87647 33.8589 9.37058 34.7147L22.1102 56.7803C22.6043 57.6361 23.5174 58.1633 24.5056 58.1633L49.9848 58.1633C50.973 58.1633 51.8862 57.6361 52.3803 56.7803L65.1199 34.7147C65.614 33.8589 65.614 32.8045 65.1199 31.9487L52.3803 9.88302C51.8862 9.02721 50.973 8.5 49.9848 8.5L24.5056 8.5C23.5174 8.5 22.6043 9.02721 22.1102 9.88302L18.9253 15.3994" stroke="url(#paint0_linear_1732_22209)" stroke-width="3" stroke-linecap="round"/>
<path d="M26 37C26 39.047 24.5494 40.5 23 40.5C21.4506 40.5 20 39.047 20 37C20 34.953 21.4506 33.5 23 33.5C24.5494 33.5 26 34.953 26 37Z" fill="white" stroke="#9D3D97" stroke-width="2"/>
<path d="M54 37C54 39.047 52.5494 40.5 51 40.5C49.4506 40.5 48 39.047 48 37C48 34.953 49.4506 33.5 51 33.5C52.5494 33.5 54 34.953 54 37Z" fill="white" stroke="#9D3D97" stroke-width="2"/>
<path d="M50 34.5C50 26.7019 44.1158 20.5 37 20.5C29.8842 20.5 24 26.7019 24 34.5C24 38.5275 24.8435 42.015 26.825 44.4801C28.7738 46.9047 31.954 48.5 37 48.5C42.046 48.5 45.2262 46.9047 47.175 44.4801C49.1565 42.015 50 38.5275 50 34.5Z" fill="white" stroke="#9D3D97" stroke-width="2"/>
<path d="M37.2222 39.1315C36.5111 39.1315 35.4444 38.7222 35 38.5C35.1481 39.1667 35.8 40.5 37.2222 40.5C38.6444 40.5 39 39.1667 39 38.5C38.7037 38.7222 37.9333 39.1315 37.2222 39.1315Z" fill="#9D3D97"/>
<path d="M40.3901 42.5H33.6099C33.2944 42.5 33.0633 42.7903 33.2068 43.0714C33.6432 43.9261 34.7524 45 37 45C39.2476 45 40.3568 43.9261 40.7932 43.0713C40.9367 42.7903 40.7056 42.5 40.3901 42.5Z" fill="#9D3D97"/>
<ellipse cx="31.25" cy="36" rx="2.25" ry="2.5" fill="#9D3D97"/>
<ellipse cx="42.625" cy="36" rx="2.25" ry="2.5" fill="#9D3D97"/>
<path d="M27.0322 30.2954C29.0764 28.3608 30.8878 24.9642 31.5684 23.3521C31.5684 24.3194 34.5431 27.5323 38.6247 28.6931C43.7268 30.144 47.1803 29.3281 48.2011 30.2954C49.0178 31.0692 48.7776 32.3715 49.1179 33.5C52.1804 31.0818 51.3906 24.8511 47.5833 20.9255C41.6488 14.8066 31.5684 15.8748 31.0644 19.0793C27.5362 18.5452 25.1281 21.4091 24.1048 23.8273C22.8796 26.7225 22.9168 30.5982 23.0869 32.0491C23.173 32.783 25.3475 31.8896 27.0322 30.2954Z" fill="#EC519E"/>
<defs>
<linearGradient id="paint0_linear_1732_22209" x1="37.2452" y1="8.5" x2="37.2452" y2="58.1633" gradientUnits="userSpaceOnUse">
<stop stop-color="#DA5DB0"/>
<stop offset="1" stop-color="#924292"/>
</linearGradient>
</defs>
</svg>
