<svg width="74" height="66" viewBox="0 0 74 66" fill="none" xmlns="http://www.w3.org/2000/svg">
<path d="M1.05701 34.4034L17.5198 62.8388C18.1583 63.9417 19.3383 64.6211 20.6153 64.6211H53.5409C54.8179 64.6211 55.9979 63.9417 56.6365 62.8388L73.0992 34.4034C73.7378 33.3005 73.7378 31.9417 73.0992 30.8388L56.6365 2.40336C55.9979 1.30049 54.8179 0.621094 53.5409 0.621096L20.6153 0.621094C19.3383 0.621091 18.1583 1.30049 17.5198 2.40336L1.05701 30.8388C0.418497 31.9417 0.418497 33.3005 1.05701 34.4034Z" fill="white"/>
<path d="M23.1978 48.331L30.5783 51.55L38.4258 48.3175C39.1751 48.0089 39.6641 47.2786 39.6641 46.4683V36.4171L31.303 33.2725C30.8368 33.0972 30.3218 33.1021 29.859 33.2864L21.9974 36.4171V46.4978C21.9974 47.2932 22.4687 48.013 23.1978 48.331Z" fill="#EC519E"/>
<path d="M30.5783 40.3224V51.55M30.5783 40.3224L21.9974 36.4171M30.5783 40.3224L39.6641 36.4171M30.5783 51.55L23.1978 48.331C22.4687 48.013 21.9974 47.2932 21.9974 46.4978V36.4171M30.5783 51.55L38.4258 48.3175C39.1751 48.0089 39.6641 47.2786 39.6641 46.4683V36.4171M21.9974 36.4171L29.859 33.2864C30.3218 33.1021 30.8368 33.0972 31.303 33.2725L39.6641 36.4171" stroke="white"/>
<path d="M42.1978 40.331L49.5783 43.55L57.4258 40.3175C58.1751 40.0089 58.6641 39.2786 58.6641 38.4683V28.4171L50.303 25.2725C49.8368 25.0972 49.3218 25.1021 48.859 25.2864L40.9974 28.4171V38.4978C40.9974 39.2932 41.4687 40.013 42.1978 40.331Z" fill="#EC519E"/>
<path d="M49.5783 32.3224V43.55M49.5783 32.3224L40.9974 28.4171M49.5783 32.3224L58.6641 28.4171M49.5783 43.55L42.1978 40.331C41.4687 40.013 40.9974 39.2932 40.9974 38.4978V28.4171M49.5783 43.55L57.4258 40.3175C58.1751 40.0089 58.6641 39.2786 58.6641 38.4683V28.4171M40.9974 28.4171L48.859 25.2864C49.3218 25.1021 49.8368 25.0972 50.303 25.2725L58.6641 28.4171" stroke="white"/>
<path d="M25.1978 29.331L32.5783 32.55L40.4258 29.3175C41.1751 29.0089 41.6641 28.2786 41.6641 27.4683V17.4171L33.303 14.2725C32.8368 14.0972 32.3218 14.1021 31.859 14.2864L23.9974 17.4171V27.4978C23.9974 28.2932 24.4687 29.013 25.1978 29.331Z" fill="#EC519E"/>
<path d="M32.5783 21.3224V32.55M32.5783 21.3224L23.9974 17.4171M32.5783 21.3224L41.6641 17.4171M32.5783 32.55L25.1978 29.331C24.4687 29.013 23.9974 28.2932 23.9974 27.4978V17.4171M32.5783 32.55L40.4258 29.3175C41.1751 29.0089 41.6641 28.2786 41.6641 27.4683V17.4171M23.9974 17.4171L31.859 14.2864C32.3218 14.1021 32.8368 14.0972 33.303 14.2725L41.6641 17.4171" stroke="white"/>
<path d="M56.2695 14.528L52.988 8.84434C52.4789 7.96259 51.5381 7.4194 50.52 7.4194L24.2685 7.41941C23.2503 7.41941 22.3095 7.96259 21.8004 8.84435L8.67469 31.5788C8.16561 32.4605 8.16561 33.5469 8.67469 34.4287L21.8004 57.1631C22.3095 58.0449 23.2503 58.588 24.2685 58.588L50.52 58.588C51.5381 58.588 52.4789 58.0448 52.988 57.1631L66.1138 34.4287C66.6228 33.5469 66.6228 32.4605 66.1138 31.5788L62.8323 25.8952" stroke="url(#paint0_linear_1732_22212)" stroke-width="3" stroke-linecap="round"/>
<path d="M18 15.5L57 49.5" stroke="url(#paint1_linear_1732_22212)" stroke-width="3" stroke-linecap="round"/>
<defs>
<linearGradient id="paint0_linear_1732_22212" x1="51.9449" y1="58.2062" x2="22.8436" y2="7.80122" gradientUnits="userSpaceOnUse">
<stop stop-color="#DA5DB0"/>
<stop offset="1" stop-color="#924292"/>
</linearGradient>
<linearGradient id="paint1_linear_1732_22212" x1="58" y1="49" x2="18" y2="16" gradientUnits="userSpaceOnUse">
<stop stop-color="#DA5DB0"/>
<stop offset="1" stop-color="#924292"/>
</linearGradient>
</defs>
</svg>
