<svg width="74" height="66" viewBox="0 0 74 66" fill="none" xmlns="http://www.w3.org/2000/svg">
<path d="M1.05701 34.4034L17.5198 62.8388C18.1583 63.9417 19.3383 64.6211 20.6153 64.6211H53.5409C54.8179 64.6211 55.9979 63.9417 56.6365 62.8388L73.0992 34.4034C73.7378 33.3005 73.7378 31.9417 73.0992 30.8388L56.6365 2.40336C55.9979 1.30049 54.8179 0.621094 53.5409 0.621096L20.6153 0.621094C19.3383 0.621091 18.1583 1.30049 17.5198 2.40336L1.05701 30.8388C0.418497 31.9417 0.418497 33.3005 1.05701 34.4034Z" fill="white"/>
<path d="M29.405 20.3874C28.7978 20.5472 27.6791 21.1161 28.0627 22.1133C28.3779 22.933 29.1035 23.7225 29.6004 24.1728C29.7788 24.3346 29.9095 24.5448 29.955 24.7813L30.3639 26.9076M29.405 20.3874L45.9153 20.3874M29.405 20.3874L28.0627 14.9999M30.3639 26.9076C29.8205 27.2272 28.7339 28.0007 28.7339 28.5376C28.7339 29.0746 29.5009 29.912 29.8845 30.2635M30.3639 26.9076L44.9564 26.9076M29.8845 30.2635C29.5009 30.4234 28.7339 30.9923 28.7339 31.9895C28.7339 32.9867 29.5009 33.3638 29.8845 33.4278M29.8845 30.2635L45.4358 30.2635M29.8845 33.4278L30.3302 36.1912C30.3524 36.329 30.3455 36.4699 30.31 36.6049L30.1645 37.1579C30.0144 37.7284 30.3882 38.3042 30.9704 38.3993L33.744 38.8521C34.2277 38.9311 34.5829 39.349 34.5829 39.8391L34.5829 40.293C34.5829 40.8453 35.0306 41.293 35.5829 41.293L39.3128 41.293C39.8651 41.293 40.3128 40.8453 40.3128 40.293L40.3128 39.8505C40.3128 39.3554 40.6751 38.9348 41.1647 38.8615L44.3331 38.3871C44.9217 38.299 45.3035 37.7193 45.1521 37.1437L45.0103 36.6049C44.9748 36.4699 44.9679 36.329 44.9901 36.1912L45.4358 33.4278M29.8845 33.4278L45.4358 33.4278M45.9153 20.3874C46.5225 20.5472 47.6412 21.1161 47.2576 22.1133C46.9424 22.933 46.2168 23.7225 45.7199 24.1728C45.5415 24.3346 45.4108 24.5448 45.3653 24.7813L44.9564 26.9076M45.9153 20.3874L47.2608 14.9999M44.9564 26.9076C45.4998 27.2272 46.5865 28.0007 46.5865 28.5376C46.5865 29.0746 45.8194 29.912 45.4358 30.2635M45.4358 30.2635C45.8194 30.4234 46.5865 30.9923 46.5865 31.9895C46.5865 32.9867 45.8194 33.3638 45.4358 33.4278" stroke="#9D3D97" stroke-width="2" stroke-linecap="round"/>
<path d="M40.5 49.7273C40.5 47.8182 38.5833 45.3636 37.5 44C36.4167 45.4545 34.5 47.9545 34.5 49.7273C34.5 51.5 35.5 53 37.5 53C39.5 53 40.5 51.3862 40.5 49.7273Z" fill="#EC519E"/>
<path d="M30.828 7.42188L24.2651 7.42188C23.2469 7.42188 22.3061 7.96506 21.797 8.84682L8.67132 31.5812C8.16223 32.463 8.16223 33.5494 8.67132 34.4311L21.797 57.1656C22.3061 58.0473 23.2469 58.5905 24.2651 58.5905L50.5166 58.5905C51.5347 58.5905 52.4756 58.0473 52.9846 57.1656L66.1104 34.4311C66.6195 33.5494 66.6195 32.463 66.1104 31.5812L52.9846 8.84682C52.4756 7.96506 51.5347 7.42188 50.5166 7.42188L43.9537 7.42188" stroke="url(#paint0_linear_1732_22215)" stroke-width="3" stroke-linecap="round"/>
<defs>
<linearGradient id="paint0_linear_1732_22215" x1="66.4922" y1="33.0062" x2="8.2895" y2="33.0062" gradientUnits="userSpaceOnUse">
<stop stop-color="#DA5DB0"/>
<stop offset="1" stop-color="#924292"/>
</linearGradient>
</defs>
</svg>
