<svg width="221" height="251" viewBox="0 0 221 251" fill="none" xmlns="http://www.w3.org/2000/svg">
<g clip-path="url(#clip0_2142_22837)">
<path d="M117.503 8.6182C112.553 5.76008 106.453 5.76008 101.503 8.6182L12.2812 60.1306C7.33084 62.9887 4.28125 68.2708 4.28125 73.987V177.011C4.28125 182.728 7.33084 188.01 12.2812 190.868L101.503 242.38C106.453 245.238 112.553 245.238 117.503 242.38L206.725 190.868C211.676 188.01 214.725 182.728 214.725 177.011V73.987C214.725 68.2708 211.676 62.9887 206.725 60.1306L117.503 8.6182Z" fill="white" fill-opacity="0.42"/>
<path d="M10.7812 57.5325L100.003 6.02013C105.882 2.6261 113.124 2.6261 119.003 6.02013L208.225 57.5325C214.104 60.9265 217.725 67.199 217.725 73.987V177.011C217.725 183.799 214.104 190.072 208.225 193.466L119.003 244.978C113.124 248.372 105.882 248.372 100.003 244.978L10.7812 193.466C4.90264 190.072 1.28125 183.799 1.28125 177.011V73.987C1.28125 67.199 4.90264 60.9265 10.7812 57.5325Z" stroke="white" stroke-opacity="0.42" stroke-width="6"/>
</g>
<defs>
<clipPath id="clip0_2142_22837">
<rect width="221" height="251" fill="white"/>
</clipPath>
</defs>
</svg>
