<svg width="160" height="135" viewBox="0 0 160 135" fill="none" xmlns="http://www.w3.org/2000/svg">
<path d="M155.103 76.1998C158.119 71.1479 158.119 64.8482 155.103 59.7963L124.656 8.7963C121.768 3.9599 116.55 0.998051 110.918 0.998051H49.0823C43.4495 0.998051 38.2317 3.9599 35.3443 8.79629L4.89658 59.7963C1.8805 64.8482 1.8805 71.1479 4.89657 76.1998L35.3443 127.2C38.2317 132.036 43.4495 134.998 49.0823 134.998H110.918C116.55 134.998 121.768 132.036 124.656 127.2L155.103 76.1998Z" fill="url(#paint0_linear_2179_22841)"/>
<path d="M152.528 61.3341L122.08 10.3341C119.734 6.40456 115.494 3.99805 110.918 3.99805H49.0823C44.5057 3.99805 40.2662 6.40456 37.9202 10.3341L7.47244 61.3341C5.02188 65.4388 5.02188 70.5573 7.47244 74.662L37.9202 125.662C40.2662 129.592 44.5057 131.998 49.0823 131.998H110.918C115.494 131.998 119.734 129.592 122.08 125.662L152.528 74.662C154.978 70.5573 154.978 65.4388 152.528 61.3341Z" stroke="white" stroke-opacity="0.4" stroke-width="6"/>
<defs>
<linearGradient id="paint0_linear_2179_22841" x1="160" y1="67.998" x2="0" y2="67.998" gradientUnits="userSpaceOnUse">
<stop stop-color="#DA5DB0"/>
<stop offset="1" stop-color="#924292"/>
</linearGradient>
</defs>
</svg>
