<svg width="48" height="48" viewBox="0 0 48 48" fill="none" xmlns="http://www.w3.org/2000/svg">
<path fill-rule="evenodd" clip-rule="evenodd" d="M34.8277 16.2966C35.2182 15.9061 35.2182 15.2729 34.8277 14.8824L33.2382 13.2929C32.8477 12.9024 32.2145 12.9024 31.824 13.2929L24.0174 21.0995L16.2966 13.3786C15.9061 12.9881 15.2729 12.9881 14.8824 13.3786L13.2929 14.9681C12.9024 15.3587 12.9024 15.9918 13.2929 16.3824L21.0137 24.1032L13.3803 31.7366C12.9898 32.1271 12.9898 32.7602 13.3803 33.1508L14.9698 34.7403C15.3603 35.1308 15.9935 35.1308 16.384 34.7403L24.0174 27.1069L31.7366 34.826C32.1271 35.2165 32.7603 35.2165 33.1508 34.826L34.7403 33.2365C35.1308 32.846 35.1308 32.2128 34.7403 31.8223L27.0211 24.1032L34.8277 16.2966Z" fill="black"/>
</svg>
