<svg width="90" height="90" viewBox="0 0 90 90" fill="none" xmlns="http://www.w3.org/2000/svg">
<g clip-path="url(#clip0_1902_19947)">
<g filter="url(#filter0_d_1902_19947)">
<path d="M9.27365 46.9663L25.7962 75.5842C26.4371 76.6942 27.6214 77.3779 28.903 77.3779L61.9482 77.3779C63.2299 77.3779 64.4142 76.6942 65.055 75.5842L69.1857 68.4297L77.4469 54.1207L81.5776 46.9663C82.2184 45.8563 82.2184 44.4888 81.5776 43.3788L65.055 14.7609C64.4142 13.6509 63.2299 12.9672 61.9482 12.9672L28.903 12.9672C27.6214 12.9672 26.4371 13.6509 25.7962 14.7609L9.27365 43.3788C8.63282 44.4888 8.63282 45.8563 9.27365 46.9663Z" fill="white"/>
</g>
<path d="M25.77 63.2786L29.04 68.9424C29.5473 69.8211 30.485 70.3623 31.4997 70.3622L57.6634 70.3601C58.6782 70.36 59.6159 69.8186 60.1234 68.9398L73.2071 46.2825C73.7145 45.4037 73.7146 44.3211 73.2073 43.4424L60.1273 20.7871C59.62 19.9084 58.6823 19.3672 57.6676 19.3673L31.5039 19.3694C30.4891 19.3695 29.5514 19.9109 29.0439 20.7896L15.9602 43.447C15.4528 44.3258 15.4527 45.4084 15.96 46.2871L19.23 51.9509" stroke="url(#paint0_linear_1902_19947)" stroke-width="3" stroke-linecap="round"/>
<path d="M44.7292 37.5674C44.8379 37.3397 45.1621 37.3397 45.2708 37.5674L47.522 42.2853C47.5657 42.3769 47.6529 42.4402 47.7536 42.4535L52.9362 43.1367C53.1864 43.1697 53.2865 43.478 53.1035 43.6517L49.3122 47.2507C49.2386 47.3206 49.2053 47.423 49.2238 47.5229L50.1756 52.663C50.2215 52.9111 49.9593 53.1016 49.7375 52.9813L45.1431 50.4877C45.0539 50.4392 44.9461 50.4392 44.8569 50.4877L40.2625 52.9813C40.0407 53.1016 39.7785 52.9111 39.8244 52.663L40.7762 47.5229C40.7947 47.423 40.7614 47.3206 40.6878 47.2507L36.8965 43.6517C36.7135 43.478 36.8136 43.1697 37.0638 43.1367L42.2464 42.4535C42.3471 42.4402 42.4343 42.3769 42.478 42.2853L44.7292 37.5674Z" fill="#EC519E"/>
<path d="M40.3136 37.7237L45 27.9025L49.6864 37.7237C50.0144 38.4111 50.6679 38.8859 51.423 38.9854L62.2117 40.4076L54.3194 47.8995C53.767 48.4239 53.5174 49.1921 53.6561 49.941L55.6374 60.6412L46.0733 55.4503C45.4039 55.087 44.5961 55.087 43.9267 55.4503L34.3626 60.6412L36.3439 49.941C36.4826 49.1921 36.233 48.4239 35.6806 47.8995L27.7883 40.4076L38.577 38.9854C39.3321 38.8859 39.9856 38.4111 40.3136 37.7237Z" stroke="#9D3D97" stroke-width="2.5"/>
</g>
<defs>
<filter id="filter0_d_1902_19947" x="-1.20312" y="6.96716" width="85.2578" height="76.4108" filterUnits="userSpaceOnUse" color-interpolation-filters="sRGB">
<feFlood flood-opacity="0" result="BackgroundImageFix"/>
<feColorMatrix in="SourceAlpha" type="matrix" values="0 0 0 0 0 0 0 0 0 0 0 0 0 0 0 0 0 0 127 0" result="hardAlpha"/>
<feOffset dx="-4"/>
<feGaussianBlur stdDeviation="3"/>
<feComposite in2="hardAlpha" operator="out"/>
<feColorMatrix type="matrix" values="0 0 0 0 0.490196 0 0 0 0 0.243137 0 0 0 0 0.443137 0 0 0 0.25 0"/>
<feBlend mode="normal" in2="BackgroundImageFix" result="effect1_dropShadow_1902_19947"/>
<feBlend mode="normal" in="SourceGraphic" in2="effect1_dropShadow_1902_19947" result="shape"/>
</filter>
<linearGradient id="paint0_linear_1902_19947" x1="30.0836" y1="19.75" x2="59.0836" y2="69.9795" gradientUnits="userSpaceOnUse">
<stop stop-color="#DA5DB0"/>
<stop offset="1" stop-color="#924292"/>
</linearGradient>
<clipPath id="clip0_1902_19947">
<rect width="90" height="90" fill="white"/>
</clipPath>
</defs>
</svg>
