<svg width="62" height="31" viewBox="0 0 62 31" fill="none" xmlns="http://www.w3.org/2000/svg">
<path fill-rule="evenodd" clip-rule="evenodd" d="M17.1265 0L9.48609 6.86863H22.8086L24.3738 8.45077H37.9899L30.238 0H17.1265Z" fill="#002542"/>
<path fill-rule="evenodd" clip-rule="evenodd" d="M22.9717 22.2142L21.1574 23.8197H7.65732L13.9292 30.7711H27.0401L36.515 22.2142H22.9717Z" fill="#002542"/>
<path fill-rule="evenodd" clip-rule="evenodd" d="M7.80594 8.40705L0 15.3866L6.23384 22.2501H19.5405L13.0572 15.3846L21.1348 8.40705H7.80594Z" fill="#002542"/>
<path fill-rule="evenodd" clip-rule="evenodd" d="M56.0733 16.1039L50.8115 16.1019C50.2649 16.0771 49.8247 15.6491 49.8202 15.1247C49.8196 15.028 49.8337 14.8809 49.8673 14.793L50.3141 13.5548C50.9591 11.8156 52.807 10.7739 54.8262 10.7602L61.8945 10.7613L61.3356 12.3011H56.311C54.9971 12.3088 53.8583 12.7527 53.5189 13.7206L53.5021 13.7678L53.434 13.9344C53.3557 14.1622 53.2148 14.6412 53.2148 14.6412L54.0976 14.6432L59.5188 14.6474C60.0651 14.6722 60.5047 15.0991 60.5098 15.6238C60.5113 15.7211 60.4966 15.8675 60.463 15.9563L59.9347 17.4221C59.2343 18.9314 57.5212 19.9974 55.502 20.0113L48.1309 20.0059L48.7231 18.3822H54.1881C55.5021 18.3751 56.3902 17.9215 56.6999 17.1033L56.8115 16.8086L56.8589 16.6761C56.938 16.448 56.9824 16.0996 56.9824 16.0996L56.0733 16.1039Z" fill="#002542"/>
<path fill-rule="evenodd" clip-rule="evenodd" d="M33.4424 13.578C34.0867 11.8389 35.9362 10.7971 37.9554 10.7832L45.0639 10.7846L44.5074 12.3232H39.439C38.1263 12.3306 36.9866 12.7745 36.6471 13.7432L35.305 17.5938C35.2837 17.6506 35.2825 17.7124 35.2825 17.7749C35.2861 18.1128 35.5653 18.3907 35.9182 18.4055H37.0894C38.4034 18.3978 39.2915 17.9433 39.6 17.1262L39.9755 16.1268H37.9956L38.5194 14.6664H43.8393L42.836 17.4439C42.1353 18.9532 40.4222 20.0194 38.4034 20.0334L33.4007 20.0322L33.2793 20.0342C32.4346 20.0342 31.7419 19.3835 31.7337 18.5824C31.7317 18.4063 31.7608 18.2177 31.8298 18.0619L33.4424 13.578Z" fill="#002542"/>
<path fill-rule="evenodd" clip-rule="evenodd" d="M20.9355 20.0333C20.322 20.0077 19.8294 19.5657 19.8237 19.0242C19.8228 18.9236 19.8393 18.772 19.8774 18.681L19.979 18.3937L22.74 10.7845H33.339L32.7816 12.3231H26.0428C25.6171 12.3231 25.3568 12.603 25.2896 12.7969C25.2452 12.9272 24.6584 14.6672 24.6584 14.6672H30.2251L29.701 16.1267H24.1334C24.1334 16.1267 23.5613 17.7194 23.522 17.8309C23.4429 18.0587 23.4663 18.4054 24.0303 18.4054H30.9403L30.3624 20.0342L20.9355 20.0333Z" fill="#002542"/>
<path fill-rule="evenodd" clip-rule="evenodd" d="M44.7596 20.0333C44.1461 20.0077 43.6534 19.5657 43.6465 19.0242C43.6465 18.9236 43.6633 18.772 43.7011 18.681L43.8018 18.3937L43.8969 18.1383L46.5637 10.7845H50.0177L46.6588 20.0333H44.7596Z" fill="#002542"/>
</svg>
