<svg width="86" height="77" viewBox="0 0 86 77" fill="none" xmlns="http://www.w3.org/2000/svg">
<g filter="url(#filter0_d_1576_17848)">
<path d="M7.32263 39.6045L23.7854 68.04C24.4239 69.1429 25.6039 69.8223 26.881 69.8223H59.8065C61.0836 69.8223 62.2636 69.1429 62.9021 68.04L79.3649 39.6045C80.0034 38.5017 80.0034 37.1429 79.3649 36.04L62.9021 7.60454C62.2636 6.50167 61.0836 5.82227 59.8065 5.82227L26.881 5.82227C25.6039 5.82227 24.4239 6.50166 23.7854 7.60454L7.32263 36.04C6.68412 37.1429 6.68412 38.5017 7.32263 39.6045Z" fill="white"/>
</g>
<path d="M18.5555 30.4322L15.3706 35.9487C14.8765 36.8045 14.8765 37.8589 15.3706 38.7147L28.1102 60.7803C28.6043 61.6361 29.5174 62.1633 30.5056 62.1633L55.9848 62.1633C56.973 62.1633 57.8862 61.6361 58.3803 60.7803L71.1199 38.7147C71.614 37.8589 71.614 36.8045 71.1199 35.9487L58.3803 13.883C57.8862 13.0272 56.973 12.5 55.9848 12.5L30.5056 12.5C29.5174 12.5 28.6043 13.0272 28.1102 13.883L24.9253 19.3994" stroke="url(#paint0_linear_1576_17848)" stroke-width="3" stroke-linecap="round"/>
<path d="M32 41C32 43.0469 30.5494 44.5 29 44.5C27.4506 44.5 26 43.0469 26 41C26 38.953 27.4506 37.5 29 37.5C30.5494 37.5 32 38.953 32 41Z" fill="white" stroke="#9D3D97" stroke-width="2"/>
<path d="M60 41C60 43.0469 58.5494 44.5 57 44.5C55.4506 44.5 54 43.0469 54 41C54 38.953 55.4506 37.5 57 37.5C58.5494 37.5 60 38.953 60 41Z" fill="white" stroke="#9D3D97" stroke-width="2"/>
<path d="M56 38.5C56 30.7019 50.1158 24.5 43 24.5C35.8842 24.5 30 30.7019 30 38.5C30 42.5275 30.8435 46.015 32.825 48.4801C34.7738 50.9047 37.954 52.5 43 52.5C48.046 52.5 51.2262 50.9047 53.175 48.4801C55.1565 46.015 56 42.5275 56 38.5Z" fill="white" stroke="#9D3D97" stroke-width="2"/>
<path d="M43.2222 43.1315C42.5111 43.1315 41.4444 42.7222 41 42.5C41.1481 43.1667 41.8 44.5 43.2222 44.5C44.6444 44.5 45 43.1667 45 42.5C44.7037 42.7222 43.9333 43.1315 43.2222 43.1315Z" fill="#9D3D97"/>
<path d="M46.3901 46.5H39.6099C39.2944 46.5 39.0633 46.7904 39.2068 47.0714C39.6432 47.9261 40.7524 49 43 49C45.2476 49 46.3568 47.9261 46.7932 47.0714C46.9367 46.7904 46.7056 46.5 46.3901 46.5Z" fill="#9D3D97"/>
<ellipse cx="37.25" cy="40" rx="2.25" ry="2.5" fill="#9D3D97"/>
<ellipse cx="48.625" cy="40" rx="2.25" ry="2.5" fill="#9D3D97"/>
<path d="M33.0322 34.2954C35.0764 32.3609 36.8878 28.9642 37.5684 27.3521C37.5684 28.3194 40.5431 31.5324 44.6247 32.6931C49.7268 34.144 53.1803 33.3281 54.2011 34.2954C55.0178 35.0692 54.7776 36.3715 55.1179 37.5C58.1804 35.0819 57.3906 28.8511 53.5833 24.9255C47.6488 18.8066 37.5684 19.8748 37.0644 23.0794C33.5362 22.5453 31.1281 25.4091 30.1048 27.8273C28.8796 30.7226 28.9168 34.5982 29.0869 36.0491C29.173 36.783 31.3475 35.8896 33.0322 34.2954Z" fill="#EC519E"/>
<defs>
<filter id="filter0_d_1576_17848" x="0.84375" y="0.822266" width="85" height="76" filterUnits="userSpaceOnUse" color-interpolation-filters="sRGB">
<feFlood flood-opacity="0" result="BackgroundImageFix"/>
<feColorMatrix in="SourceAlpha" type="matrix" values="0 0 0 0 0 0 0 0 0 0 0 0 0 0 0 0 0 0 127 0" result="hardAlpha"/>
<feOffset dy="1"/>
<feGaussianBlur stdDeviation="3"/>
<feComposite in2="hardAlpha" operator="out"/>
<feColorMatrix type="matrix" values="0 0 0 0 0.490196 0 0 0 0 0.243137 0 0 0 0 0.443137 0 0 0 0.25 0"/>
<feBlend mode="normal" in2="BackgroundImageFix" result="effect1_dropShadow_1576_17848"/>
<feBlend mode="normal" in="SourceGraphic" in2="effect1_dropShadow_1576_17848" result="shape"/>
</filter>
<linearGradient id="paint0_linear_1576_17848" x1="43.2452" y1="12.5" x2="43.2452" y2="62.1633" gradientUnits="userSpaceOnUse">
<stop stop-color="#DA5DB0"/>
<stop offset="1" stop-color="#924292"/>
</linearGradient>
</defs>
</svg>
