<svg width="74" height="66" viewBox="0 0 74 66" fill="none" xmlns="http://www.w3.org/2000/svg">
<path d="M1.27576 34.7491L17.7385 63.1845C18.3771 64.2874 19.5571 64.9668 20.8341 64.9668H53.7597C55.0367 64.9668 56.2167 64.2874 56.8552 63.1845L73.318 34.7491C73.9565 33.6462 73.9565 32.2874 73.318 31.1845L56.8552 2.74907C56.2167 1.64619 55.0367 0.966797 53.7597 0.966799L20.8341 0.966797C19.5571 0.966794 18.3771 1.64619 17.7385 2.74906L1.27576 31.1845C0.637247 32.2874 0.637247 33.6462 1.27576 34.7491Z" fill="white"/>
<path d="M36.1343 38.5653V41H25.3567V38.9224L30.4534 33.4578C30.9656 32.8879 31.3695 32.3866 31.6653 31.9537C31.9611 31.5137 32.1739 31.1205 32.3037 30.7743C32.4408 30.4208 32.5093 30.0853 32.5093 29.7679C32.5093 29.2918 32.43 28.8842 32.2713 28.5452C32.1126 28.1989 31.8781 27.932 31.5679 27.7444C31.2649 27.5569 30.8898 27.4631 30.4425 27.4631C29.9664 27.4631 29.5552 27.5785 29.209 27.8093C28.8699 28.0402 28.6102 28.3612 28.4299 28.7724C28.2567 29.1836 28.1702 29.6489 28.1702 30.1683H25.0429C25.0429 29.2305 25.2666 28.372 25.7138 27.5929C26.1611 26.8066 26.7923 26.1826 27.6075 25.7209C28.4226 25.252 29.3893 25.0176 30.5075 25.0176C31.6112 25.0176 32.5418 25.1979 33.2993 25.5586C34.0639 25.9121 34.641 26.4243 35.0306 27.0952C35.4274 27.7588 35.6257 28.5524 35.6257 29.4758C35.6257 29.9952 35.5428 30.5037 35.3769 31.0015C35.2109 31.4921 34.9729 31.9826 34.6627 32.4731C34.3597 32.9565 33.9918 33.447 33.559 33.9448C33.1261 34.4425 32.6464 34.9583 32.1198 35.4922L29.3821 38.5653H36.1343ZM49.1194 35.1134V37.559H37.7683L37.6168 35.6653L44.1851 25.2448H46.663L43.9795 29.7355L40.7116 35.1134H49.1194ZM47.3339 25.2448V41H44.2175V25.2448H47.3339Z" fill="#EC519E"/>
<path d="M37.3125 12V16.1552" stroke="#9D3D97" stroke-width="1.84676" stroke-linecap="round"/>
<path d="M37.3125 50.4766V54.6318" stroke="#9D3D97" stroke-width="1.84676" stroke-linecap="round"/>
<path d="M60.6328 33.3145L56.4776 33.3145" stroke="#9D3D97" stroke-width="1.84676" stroke-linecap="round"/>
<path d="M18.1562 33.3145L14.001 33.3145" stroke="#9D3D97" stroke-width="1.84676" stroke-linecap="round"/>
<path d="M61.4745 26.0283L64.619 31.5566C65.127 32.4498 65.127 33.5502 64.619 34.4434L52.041 56.5566C51.533 57.4498 50.5941 58 49.578 58L24.422 58C23.4059 58 22.4671 57.4498 21.959 56.5566L9.38102 34.4434C8.87299 33.5502 8.87299 32.4498 9.38102 31.5566L21.959 9.44338C22.4671 8.55021 23.4059 8 24.422 8L49.578 8C50.5941 8 51.533 8.55021 52.041 9.44338L55.5 16.5M55.5 16.5L56.5 11M55.5 16.5L50.5 14" stroke="url(#paint0_linear_1576_17814)" stroke-width="3" stroke-linecap="round"/>
<defs>
<linearGradient id="paint0_linear_1576_17814" x1="37" y1="8" x2="37" y2="58" gradientUnits="userSpaceOnUse">
<stop stop-color="#DA5DB0"/>
<stop offset="1" stop-color="#924292"/>
</linearGradient>
</defs>
</svg>
