<svg width="86" height="77" viewBox="0 0 86 77" fill="none" xmlns="http://www.w3.org/2000/svg">
<g filter="url(#filter0_d_1576_17849)">
<path d="M7.05701 39.4034L23.5198 67.8388C24.1583 68.9417 25.3383 69.6211 26.6153 69.6211H59.5409C60.8179 69.6211 61.9979 68.9417 62.6365 67.8388L79.0992 39.4034C79.7378 38.3005 79.7378 36.9417 79.0992 35.8388L62.6365 7.40336C61.9979 6.30049 60.8179 5.62109 59.5409 5.6211L26.6153 5.62109C25.3383 5.62109 24.1583 6.30049 23.5198 7.40336L7.05701 35.8388C6.4185 36.9417 6.4185 38.3005 7.05701 39.4034Z" fill="white"/>
</g>
<path d="M29.1978 53.331L36.5783 56.55L44.4258 53.3175C45.1751 53.0089 45.6641 52.2786 45.6641 51.4683V41.4171L37.303 38.2725C36.8368 38.0972 36.3218 38.1021 35.859 38.2864L27.9974 41.4171V51.4978C27.9974 52.2932 28.4687 53.013 29.1978 53.331Z" fill="#EC519E"/>
<path d="M36.5783 45.3224V56.55M36.5783 45.3224L27.9974 41.4171M36.5783 45.3224L45.6641 41.4171M36.5783 56.55L29.1978 53.331C28.4687 53.013 27.9974 52.2932 27.9974 51.4978V41.4171M36.5783 56.55L44.4258 53.3175C45.1751 53.0089 45.6641 52.2786 45.6641 51.4683V41.4171M27.9974 41.4171L35.859 38.2864C36.3218 38.1021 36.8368 38.0972 37.303 38.2725L45.6641 41.4171" stroke="white"/>
<path d="M48.1978 45.331L55.5783 48.55L63.4258 45.3175C64.1751 45.0089 64.6641 44.2786 64.6641 43.4683V33.4171L56.303 30.2725C55.8368 30.0972 55.3218 30.1021 54.859 30.2864L46.9974 33.4171V43.4978C46.9974 44.2932 47.4687 45.013 48.1978 45.331Z" fill="#EC519E"/>
<path d="M55.5783 37.3224V48.55M55.5783 37.3224L46.9974 33.4171M55.5783 37.3224L64.6641 33.4171M55.5783 48.55L48.1978 45.331C47.4687 45.013 46.9974 44.2932 46.9974 43.4978V33.4171M55.5783 48.55L63.4258 45.3175C64.1751 45.0089 64.6641 44.2786 64.6641 43.4683V33.4171M46.9974 33.4171L54.859 30.2864C55.3218 30.1021 55.8368 30.0972 56.303 30.2725L64.6641 33.4171" stroke="white"/>
<path d="M31.1978 34.331L38.5783 37.55L46.4258 34.3175C47.1751 34.0089 47.6641 33.2786 47.6641 32.4683V22.4171L39.303 19.2725C38.8368 19.0972 38.3218 19.1021 37.859 19.2864L29.9974 22.4171V32.4978C29.9974 33.2932 30.4687 34.013 31.1978 34.331Z" fill="#EC519E"/>
<path d="M38.5783 26.3224V37.55M38.5783 26.3224L29.9974 22.4171M38.5783 26.3224L47.6641 22.4171M38.5783 37.55L31.1978 34.331C30.4687 34.013 29.9974 33.2932 29.9974 32.4978V22.4171M38.5783 37.55L46.4258 34.3175C47.1751 34.0089 47.6641 33.2786 47.6641 32.4683V22.4171M29.9974 22.4171L37.859 19.2864C38.3218 19.1021 38.8368 19.0972 39.303 19.2725L47.6641 22.4171" stroke="white"/>
<path d="M62.2695 19.528L58.988 13.8443C58.4789 12.9626 57.5381 12.4194 56.52 12.4194L30.2685 12.4194C29.2503 12.4194 28.3095 12.9626 27.8004 13.8443L14.6747 36.5788C14.1656 37.4605 14.1656 38.5469 14.6747 39.4287L27.8004 62.1631C28.3095 63.0449 29.2503 63.588 30.2685 63.588L56.52 63.588C57.5381 63.588 58.4789 63.0448 58.988 62.1631L72.1138 39.4287C72.6228 38.5469 72.6228 37.4605 72.1138 36.5788L68.8323 30.8952" stroke="url(#paint0_linear_1576_17849)" stroke-width="3" stroke-linecap="round"/>
<path d="M24 20.5L63 54.5" stroke="url(#paint1_linear_1576_17849)" stroke-width="3" stroke-linecap="round"/>
<defs>
<filter id="filter0_d_1576_17849" x="0.578125" y="0.621094" width="85" height="76" filterUnits="userSpaceOnUse" color-interpolation-filters="sRGB">
<feFlood flood-opacity="0" result="BackgroundImageFix"/>
<feColorMatrix in="SourceAlpha" type="matrix" values="0 0 0 0 0 0 0 0 0 0 0 0 0 0 0 0 0 0 127 0" result="hardAlpha"/>
<feOffset dy="1"/>
<feGaussianBlur stdDeviation="3"/>
<feComposite in2="hardAlpha" operator="out"/>
<feColorMatrix type="matrix" values="0 0 0 0 0.490196 0 0 0 0 0.243137 0 0 0 0 0.443137 0 0 0 0.25 0"/>
<feBlend mode="normal" in2="BackgroundImageFix" result="effect1_dropShadow_1576_17849"/>
<feBlend mode="normal" in="SourceGraphic" in2="effect1_dropShadow_1576_17849" result="shape"/>
</filter>
<linearGradient id="paint0_linear_1576_17849" x1="57.9449" y1="63.2062" x2="28.8436" y2="12.8012" gradientUnits="userSpaceOnUse">
<stop stop-color="#DA5DB0"/>
<stop offset="1" stop-color="#924292"/>
</linearGradient>
<linearGradient id="paint1_linear_1576_17849" x1="64" y1="54" x2="24" y2="21" gradientUnits="userSpaceOnUse">
<stop stop-color="#DA5DB0"/>
<stop offset="1" stop-color="#924292"/>
</linearGradient>
</defs>
</svg>
