<svg width="86" height="77" viewBox="0 0 86 77" fill="none" xmlns="http://www.w3.org/2000/svg">
<g filter="url(#filter0_d_1576_17850)">
<path d="M7.05701 39.4034L23.5198 67.8388C24.1583 68.9417 25.3383 69.6211 26.6153 69.6211H59.5409C60.8179 69.6211 61.9979 68.9417 62.6365 67.8388L79.0992 39.4034C79.7378 38.3005 79.7378 36.9417 79.0992 35.8388L62.6365 7.40336C61.9979 6.30049 60.8179 5.62109 59.5409 5.6211L26.6153 5.62109C25.3383 5.62109 24.1583 6.30049 23.5198 7.40336L7.05701 35.8388C6.4185 36.9417 6.4185 38.3005 7.05701 39.4034Z" fill="white"/>
</g>
<path d="M35.405 25.3875C34.7978 25.5473 33.6791 26.1163 34.0627 27.1135C34.3779 27.9332 35.1035 28.7226 35.6004 29.173C35.7788 29.3347 35.9095 29.5449 35.955 29.7814L36.3639 31.9077M35.405 25.3875L51.9153 25.3875M35.405 25.3875L34.0627 20M36.3639 31.9077C35.8205 32.2273 34.7339 33.0008 34.7339 33.5378C34.7339 34.0747 35.5009 34.9121 35.8845 35.2637M36.3639 31.9077L50.9564 31.9077M35.8845 35.2637C35.5009 35.4235 34.7339 35.9924 34.7339 36.9896C34.7339 37.9868 35.5009 38.364 35.8845 38.4279M35.8845 35.2637L51.4358 35.2637M35.8845 38.4279L36.3302 41.1913C36.3524 41.3291 36.3455 41.4701 36.31 41.6051L36.1645 42.158C36.0144 42.7286 36.3882 43.3044 36.9704 43.3995L39.744 43.8523C40.2277 43.9312 40.5829 44.3491 40.5829 44.8392L40.5829 45.2931C40.5829 45.8454 41.0306 46.2931 41.5829 46.2931L45.3128 46.2931C45.8651 46.2931 46.3128 45.8454 46.3128 45.2931L46.3128 44.8506C46.3128 44.3556 46.6751 43.935 47.1647 43.8617L50.3331 43.3873C50.9217 43.2991 51.3035 42.7194 51.1521 42.1438L51.0103 41.6051C50.9748 41.4701 50.9679 41.3291 50.9901 41.1913L51.4358 38.4279M35.8845 38.4279L51.4358 38.4279M51.9153 25.3875C52.5225 25.5473 53.6412 26.1163 53.2576 27.1135C52.9424 27.9332 52.2168 28.7226 51.7199 29.173C51.5415 29.3347 51.4108 29.5449 51.3653 29.7814L50.9564 31.9077M51.9153 25.3875L53.2608 20M50.9564 31.9077C51.4998 32.2273 52.5865 33.0008 52.5865 33.5378C52.5865 34.0747 51.8194 34.9121 51.4358 35.2637M51.4358 35.2637C51.8194 35.4235 52.5865 35.9924 52.5865 36.9896C52.5865 37.9868 51.8194 38.364 51.4358 38.4279" stroke="#9D3D97" stroke-width="2" stroke-linecap="round"/>
<path d="M46.5 54.7273C46.5 52.8182 44.5833 50.3636 43.5 49C42.4167 50.4545 40.5 52.9545 40.5 54.7273C40.5 56.5 41.5 58 43.5 58C45.5 58 46.5 56.3862 46.5 54.7273Z" fill="#EC519E"/>
<path d="M36.828 12.4219L30.2651 12.4219C29.2469 12.4219 28.3061 12.9651 27.797 13.8468L14.6713 36.5812C14.1622 37.463 14.1622 38.5494 14.6713 39.4311L27.797 62.1656C28.3061 63.0473 29.2469 63.5905 30.2651 63.5905L56.5166 63.5905C57.5347 63.5905 58.4756 63.0473 58.9846 62.1656L72.1104 39.4311C72.6195 38.5494 72.6195 37.463 72.1104 36.5812L58.9846 13.8468C58.4756 12.9651 57.5347 12.4219 56.5166 12.4219L49.9537 12.4219" stroke="url(#paint0_linear_1576_17850)" stroke-width="3" stroke-linecap="round"/>
<defs>
<filter id="filter0_d_1576_17850" x="0.578125" y="0.621094" width="85" height="76" filterUnits="userSpaceOnUse" color-interpolation-filters="sRGB">
<feFlood flood-opacity="0" result="BackgroundImageFix"/>
<feColorMatrix in="SourceAlpha" type="matrix" values="0 0 0 0 0 0 0 0 0 0 0 0 0 0 0 0 0 0 127 0" result="hardAlpha"/>
<feOffset dy="1"/>
<feGaussianBlur stdDeviation="3"/>
<feComposite in2="hardAlpha" operator="out"/>
<feColorMatrix type="matrix" values="0 0 0 0 0.490196 0 0 0 0 0.243137 0 0 0 0 0.443137 0 0 0 0.25 0"/>
<feBlend mode="normal" in2="BackgroundImageFix" result="effect1_dropShadow_1576_17850"/>
<feBlend mode="normal" in="SourceGraphic" in2="effect1_dropShadow_1576_17850" result="shape"/>
</filter>
<linearGradient id="paint0_linear_1576_17850" x1="72.4922" y1="38.0062" x2="14.2895" y2="38.0062" gradientUnits="userSpaceOnUse">
<stop stop-color="#DA5DB0"/>
<stop offset="1" stop-color="#924292"/>
</linearGradient>
</defs>
</svg>
