<svg width="90" height="90" viewBox="0 0 90 90" fill="none" xmlns="http://www.w3.org/2000/svg">
<g clip-path="url(#clip0_1902_19953)">
<g filter="url(#filter0_d_1902_19953)">
<path d="M9.27365 46.9663L25.7962 75.5842C26.4371 76.6942 27.6214 77.3779 28.903 77.3779L61.9482 77.3779C63.2299 77.3779 64.4142 76.6942 65.055 75.5842L69.1857 68.4297L77.4469 54.1207L81.5776 46.9663C82.2184 45.8563 82.2184 44.4888 81.5776 43.3788L65.055 14.7609C64.4142 13.6509 63.2299 12.9672 61.9482 12.9672L28.903 12.9672C27.6214 12.9672 26.4371 13.6509 25.7962 14.7609L9.27365 43.3788C8.63282 44.4888 8.63282 45.8563 9.27365 46.9663Z" fill="white"/>
</g>
<path d="M36.5 29.5L41.5 40.5M42.5 28L45 35.5" stroke="#9D3D97" stroke-width="2" stroke-linecap="round"/>
<path d="M54.5 29.5L49.3356 40.2983C49.1382 40.711 48.6859 40.9372 48.2373 40.8475L45.1108 40.2222C44.521 40.1042 44.168 39.496 44.3582 38.9253L48 28" stroke="#9D3D97" stroke-width="2" stroke-linecap="round"/>
<path d="M57 52C57 58.6274 51.6274 64 45 64C38.3726 64 33 58.6274 33 52C33 45.3726 38.3726 40 45 40C51.6274 40 57 45.3726 57 52Z" fill="white" stroke="#9D3D97" stroke-width="2"/>
<path d="M52.1259 70.3647L58.666 70.3647C59.6806 70.3647 60.6181 69.8233 61.1254 68.9444L74.2054 46.2849C74.7128 45.4061 74.7128 44.3233 74.2054 43.4444L61.1254 20.7849C60.6181 19.9061 59.6806 19.3647 58.666 19.3647L32.5059 19.3647C31.4913 19.3647 30.5537 19.9061 30.0464 20.7849L16.9664 43.4444C16.4591 44.3233 16.4591 45.4061 16.9664 46.2849L30.0464 68.9444C30.5537 69.8233 31.4913 70.3647 32.5059 70.3647L39.0459 70.3647" stroke="url(#paint0_linear_1902_19953)" stroke-width="3" stroke-linecap="round"/>
<path d="M44.7292 45.5674C44.8379 45.3397 45.1621 45.3397 45.2708 45.5674L46.946 49.0781C46.9897 49.1698 47.0768 49.2331 47.1775 49.2464L51.0341 49.7547C51.2843 49.7877 51.3844 50.096 51.2014 50.2697L48.3802 52.9478C48.3066 53.0177 48.2733 53.1202 48.2918 53.22L49 57.0449C49.046 57.293 48.7837 57.4836 48.5619 57.3632L45.1431 55.5077C45.0539 55.4592 44.9461 55.4592 44.8569 55.5077L41.4381 57.3632C41.2163 57.4836 40.954 57.293 41 57.0449L41.7082 53.22C41.7267 53.1202 41.6934 53.0177 41.6198 52.9478L38.7986 50.2697C38.6156 50.096 38.7157 49.7877 38.9659 49.7547L42.8225 49.2464C42.9232 49.2331 43.0103 49.1698 43.054 49.0781L44.7292 45.5674Z" fill="#EC519E"/>
</g>
<defs>
<filter id="filter0_d_1902_19953" x="-1.20312" y="6.96716" width="85.2578" height="76.4108" filterUnits="userSpaceOnUse" color-interpolation-filters="sRGB">
<feFlood flood-opacity="0" result="BackgroundImageFix"/>
<feColorMatrix in="SourceAlpha" type="matrix" values="0 0 0 0 0 0 0 0 0 0 0 0 0 0 0 0 0 0 127 0" result="hardAlpha"/>
<feOffset dx="-4"/>
<feGaussianBlur stdDeviation="3"/>
<feComposite in2="hardAlpha" operator="out"/>
<feColorMatrix type="matrix" values="0 0 0 0 0.490196 0 0 0 0 0.243137 0 0 0 0 0.443137 0 0 0 0.25 0"/>
<feBlend mode="normal" in2="BackgroundImageFix" result="effect1_dropShadow_1902_19953"/>
<feBlend mode="normal" in="SourceGraphic" in2="effect1_dropShadow_1902_19953" result="shape"/>
</filter>
<linearGradient id="paint0_linear_1902_19953" x1="16.5859" y1="44.8647" x2="74.5859" y2="44.8647" gradientUnits="userSpaceOnUse">
<stop stop-color="#DA5DB0"/>
<stop offset="1" stop-color="#924292"/>
</linearGradient>
<clipPath id="clip0_1902_19953">
<rect width="90" height="90" fill="white"/>
</clipPath>
</defs>
</svg>
