<svg width="240" height="45" viewBox="0 0 240 45" fill="none" xmlns="http://www.w3.org/2000/svg">
<path d="M35.092 35.6978C35.155 35.6978 35.2495 35.6978 35.3125 35.6978C35.281 35.6978 35.2495 35.6978 35.218 35.6978C35.1235 35.6978 35.092 35.6978 35.092 35.6978ZM33.8637 0H14.5561C13.6742 0 12.8238 0.743705 12.8868 1.61136C12.9183 2.47902 13.6112 3.22272 14.5561 3.22272H34.9346C35.029 3.22272 35.1235 3.22272 35.218 3.22272C35.218 3.22272 35.218 3.22272 35.2495 3.22272H35.281C35.3755 3.22272 35.47 3.22272 35.5645 3.22272C35.596 3.22272 35.659 3.22272 35.6905 3.22272C35.722 3.22272 35.7535 3.22272 35.785 3.25371C35.9424 3.2847 36.0999 3.31568 36.2574 3.37766C36.2259 3.37766 36.2259 3.34667 36.1944 3.34667C36.2574 3.37766 36.3519 3.40865 36.4149 3.43963C36.5724 3.50161 36.7299 3.59457 36.8559 3.68754C36.8874 3.71852 37.0133 3.81149 37.0133 3.81149L37.0448 3.84247C37.1708 3.93544 37.2653 4.05939 37.3913 4.18334C37.4228 4.24531 37.4858 4.30729 37.5488 4.36927C37.5803 4.43124 37.6433 4.49322 37.6748 4.55519C39.1236 6.91026 40.5095 9.26532 41.9583 11.6204C42.7458 12.9529 43.5647 14.2543 44.3521 15.5868C44.5411 15.8967 44.7301 16.2066 44.8876 16.4855C44.8876 16.5164 44.919 16.5164 44.919 16.5474C44.9505 16.6094 44.982 16.6714 45.0135 16.7334V16.7643C45.045 16.8263 45.108 16.9813 45.108 17.0122C45.171 17.1982 45.2025 17.3531 45.234 17.539C45.234 17.632 45.234 17.694 45.234 17.7869C45.234 17.9419 45.234 18.0968 45.2025 18.2518C45.171 18.3447 45.171 18.4377 45.1395 18.5616C45.108 18.6546 45.0765 18.7476 45.045 18.8715C45.0765 18.8405 45.0765 18.8405 45.0135 18.9335C45.0135 18.9335 45.0135 18.9335 45.0135 18.9645C45.0135 18.9955 44.982 18.9955 44.982 19.0264C44.919 19.1194 44.8876 19.2124 44.8246 19.3363C44.6041 19.7702 44.4151 20.173 44.1946 20.6068C43.4702 22.0013 42.7773 23.4267 42.0528 24.8211C40.6355 27.641 39.1866 30.4609 37.7693 33.3118C37.6433 33.5597 37.5173 33.8076 37.3913 34.0555V34.0865C37.3283 34.2104 37.2338 34.3654 37.1708 34.4893C37.1393 34.5513 37.0448 34.6133 37.0133 34.7062L36.9818 34.7372C36.8874 34.8612 36.7614 34.9541 36.6669 35.0471C36.6354 35.0781 36.5724 35.1091 36.5409 35.14C36.4149 35.233 36.2889 35.295 36.1314 35.3879C36.0684 35.4189 36.0054 35.4499 35.9424 35.4809H35.9109C35.7535 35.5429 35.6275 35.5739 35.47 35.6049C35.407 35.6049 35.3755 35.6358 35.3125 35.6358C35.281 35.6358 35.218 35.6668 35.1865 35.6668C35.1235 35.6668 35.0605 35.6668 35.092 35.6668C35.0605 35.6668 34.9975 35.6668 34.966 35.6668C34.9031 35.6668 34.8086 35.6668 34.7456 35.6668C34.3676 35.6668 33.9896 35.6668 33.6117 35.6668C30.336 35.6668 27.0603 35.6668 23.7532 35.6668C20.8555 35.6668 17.9578 35.6668 15.0286 35.6668C14.8711 35.6668 14.7136 35.6668 14.5561 35.6668C13.6742 35.6668 12.8238 36.4105 12.8868 37.2782C12.9183 38.1459 13.6112 38.8896 14.5561 38.8896C16.7609 38.8896 18.9657 38.8896 21.1704 38.8896C24.7926 38.8896 28.4147 38.8896 32.0368 38.8896C32.9818 38.8896 33.8952 38.8896 34.8401 38.8896C37.1393 38.8896 39.3126 37.6501 40.352 35.6358C41.5174 33.3428 42.6828 31.0187 43.8482 28.7256C45.171 26.0916 46.4939 23.4887 47.8482 20.8547C48.1317 20.266 48.4467 19.6772 48.5412 19.0264C48.7932 17.57 48.5727 16.1446 47.7853 14.8431C47.2498 13.9445 46.7144 13.0768 46.1789 12.1782C44.4466 9.3273 42.7458 6.47643 41.0134 3.62556C40.856 3.37766 40.6985 3.12976 40.5725 2.88186C39.7536 1.58037 38.4937 0.588766 36.9818 0.154938C36.2259 0.0309877 35.47 0 34.7141 0C34.4306 0 34.1471 0 33.8637 0Z" fill="url(#paint0_linear_1701_212)"/>
<path d="M12.3828 41.5855C12.2883 41.5235 12.2253 41.4925 12.2253 41.4925C12.1938 41.4925 12.2883 41.5545 12.3828 41.5855ZM13.8002 6.0426C11.5009 6.0426 9.32763 7.28211 8.28824 9.29631C7.12286 11.5894 5.95748 13.9135 4.79209 16.2066C3.46923 18.8405 2.14636 21.4435 0.791996 24.0774C0.508525 24.6662 0.193557 25.255 0.0990661 25.9057C-0.152909 27.3621 0.0675693 28.7876 0.85499 30.0891C1.39044 30.9877 1.92588 31.8554 2.46133 32.754C4.19365 35.6049 5.89448 38.4557 7.62681 41.3066C7.78429 41.5545 7.94178 41.8024 8.06776 42.0503C8.88668 43.3518 10.1466 44.3434 11.6584 44.7772C12.6663 45.0561 13.7372 44.9941 14.7451 44.9941H34.0526C34.9346 44.9941 35.785 44.2504 35.722 43.3518C35.6905 42.4841 34.9975 41.7404 34.0526 41.7404H13.7057C13.6112 41.7404 13.5167 41.7404 13.4222 41.7404C13.4222 41.7404 13.4222 41.7404 13.3907 41.7404C13.3907 41.7404 13.3907 41.7404 13.3592 41.7404C13.2647 41.7404 13.1702 41.7404 13.0758 41.7404C13.0443 41.7404 12.9813 41.7404 12.9498 41.7404C12.9183 41.7404 12.8868 41.7404 12.8553 41.7094C12.6978 41.6785 12.5403 41.6475 12.3828 41.5855C12.4143 41.5855 12.4143 41.6165 12.4458 41.6165C12.3828 41.5855 12.2883 41.5545 12.2253 41.5235C12.0679 41.4615 11.9104 41.3686 11.7844 41.2756C11.7529 41.2446 11.6269 41.1517 11.6269 41.1517L11.5954 41.1207C11.4694 41.0277 11.3749 40.9038 11.2489 40.7798C11.2174 40.7178 11.1545 40.6559 11.0915 40.5939C11.06 40.5319 10.997 40.4699 10.9655 40.408C9.51662 38.0529 8.13076 35.6978 6.6819 33.3428C5.89448 32.0103 5.07556 30.7088 4.28814 29.3763C4.09916 29.0665 3.91018 28.7566 3.7527 28.4777C3.7527 28.4467 3.7212 28.4467 3.7212 28.4157C3.6897 28.3537 3.65821 28.2918 3.62671 28.2298C3.62671 28.2298 3.62671 28.2298 3.62671 28.1988C3.59521 28.1368 3.53222 27.9819 3.53222 27.9509C3.46923 27.765 3.43773 27.61 3.40623 27.4241C3.40623 27.3311 3.40623 27.2692 3.40623 27.1762C3.40623 27.0213 3.40623 26.8663 3.43773 26.7114C3.46923 26.6184 3.46923 26.5255 3.50072 26.4015C3.53222 26.3086 3.56372 26.2156 3.59521 26.0916C3.56372 26.1226 3.56372 26.1226 3.62671 26.0297C3.62671 26.0607 3.59521 26.0607 3.59521 26.0916C3.59521 26.0607 3.62671 26.0297 3.62671 25.9987C3.62671 25.9987 3.62671 25.9987 3.62671 25.9677C3.62671 25.9367 3.65821 25.9367 3.65821 25.9057C3.7212 25.8128 3.7527 25.7198 3.81569 25.5958C4.03617 25.193 4.22515 24.7592 4.44563 24.3253C5.17005 22.9309 5.86298 21.5055 6.58741 20.111C8.00477 17.2911 9.45362 14.4713 10.871 11.6204C10.997 11.3725 11.123 11.1246 11.2489 10.8767V10.8457C11.3119 10.7217 11.4064 10.5668 11.4694 10.4429C11.5009 10.3809 11.5954 10.3189 11.6269 10.2259L11.6584 10.195C11.7529 10.071 11.8789 9.97804 11.9734 9.88507C12.0049 9.85409 12.0679 9.8231 12.0994 9.79211C12.2253 9.69915 12.3513 9.63717 12.5088 9.54421C12.5718 9.51322 12.6348 9.48223 12.6978 9.45125H12.7293C12.8868 9.38927 13.0128 9.35828 13.1702 9.3273C13.2332 9.3273 13.2647 9.29631 13.3277 9.29631C13.4537 9.29631 13.5482 9.29631 13.5482 9.29631C13.4852 9.29631 13.3907 9.3273 13.3277 9.3273C13.3592 9.3273 13.4222 9.29631 13.4537 9.29631C13.5167 9.29631 13.5797 9.29631 13.5482 9.29631C13.5797 9.29631 13.6427 9.29631 13.6742 9.29631C13.7372 9.29631 13.8317 9.29631 13.8947 9.29631C14.2726 9.29631 14.6506 9.29631 15.0286 9.29631C18.3042 9.29631 21.5799 9.29631 24.8871 9.29631C27.7848 9.29631 30.6825 9.29631 33.6117 9.29631C33.7692 9.29631 33.9267 9.29631 34.0841 9.29631C34.966 9.29631 35.8165 8.5526 35.7535 7.68495C35.722 6.81729 35.029 6.07359 34.0841 6.07359H27.4698C23.8477 6.07359 20.2255 6.07359 16.6034 6.07359C15.9735 6.07359 15.3435 6.07359 14.7136 6.07359C14.3986 6.0426 14.1152 6.0426 13.8002 6.0426Z" fill="url(#paint1_linear_1701_212)"/>
<path d="M24.6036 13.3557C22.6508 13.3557 21.8634 13.3867 20.32 14.6262L17.8633 16.6094C16.2569 17.8799 15.879 18.8405 15.879 20.8237V23.9535C15.879 25.9367 16.2569 26.8973 17.8633 28.1678L20.32 30.151C21.8949 31.3905 22.6823 31.4215 24.6036 31.4215H29.8636C30.966 31.4215 32.1628 31.1736 32.1628 29.8102C32.1628 28.4157 30.84 28.1988 29.8636 28.1988H24.0052C23.3437 28.1988 22.6823 27.8579 22.0838 27.3931L20.0681 25.7508C19.5326 25.3479 19.1546 25.0071 19.1546 24.3873V20.4209C19.1546 19.7702 19.5326 19.4603 20.0681 19.0574L22.0838 17.4151C22.6823 16.9503 23.3437 16.6094 24.0052 16.6094H29.8636C30.84 16.6094 32.1628 16.4235 32.1628 14.998C32.1628 13.6346 30.9974 13.3867 29.8636 13.3867H24.6036V13.3557Z" fill="url(#paint2_linear_1701_212)"/>
<path d="M67.1461 17.1858C66.5272 17.1858 65.9731 17.3073 65.4838 17.5501C65.0089 17.793 64.6059 18.143 64.2749 18.6001C63.9439 19.043 63.692 19.5858 63.5193 20.2287C63.361 20.8716 63.2818 21.593 63.2818 22.393C63.2818 23.4787 63.4114 24.4073 63.6704 25.1787C63.9439 25.9358 64.3684 26.5144 64.9441 26.9144C65.5198 27.3144 66.2538 27.5144 67.1461 27.5144C67.7794 27.5144 68.4054 27.443 69.0243 27.3001C69.6575 27.1573 70.3412 26.9573 71.0752 26.7001V29.4216C70.3987 29.693 69.7295 29.893 69.0675 30.0216C68.4054 30.1501 67.6642 30.2144 66.8439 30.2144C65.2607 30.2144 63.9511 29.893 62.9148 29.2501C61.893 28.593 61.1374 27.6787 60.6481 26.5073C60.1587 25.3216 59.9141 23.943 59.9141 22.3716C59.9141 21.2144 60.0724 20.1573 60.389 19.2001C60.7056 18.2287 61.1662 17.393 61.7706 16.693C62.3895 15.993 63.1451 15.4501 64.0374 15.0644C64.9441 14.6787 65.9803 14.4858 67.1461 14.4858C67.9089 14.4858 68.6717 14.5858 69.4345 14.7858C70.2116 14.9716 70.9528 15.2287 71.658 15.5573L70.6002 18.193C70.0245 17.9216 69.4417 17.6858 68.8516 17.4858C68.2759 17.2858 67.7074 17.1858 67.1461 17.1858Z" fill="black"/>
<path d="M82.1654 25.5216C81.7337 26.493 81.2731 27.3358 80.7838 28.0501C80.3088 28.7501 79.6972 29.2858 78.9488 29.6573C78.2004 30.0287 77.2217 30.2144 76.0128 30.2144C75.6386 30.2144 75.2284 30.1858 74.7823 30.1287C74.3361 30.0716 73.9259 29.993 73.5517 29.893V27.1073C73.8971 27.2501 74.2785 27.3501 74.6959 27.4073C75.1133 27.4644 75.5019 27.493 75.8617 27.493C76.3366 27.493 76.718 27.4144 77.0058 27.2573C77.3081 27.1001 77.5455 26.8858 77.7183 26.6144C77.9053 26.3287 78.0565 26.0216 78.1716 25.693L72.8393 14.7001H76.2934L79.1647 21.3216C79.2366 21.4644 79.323 21.6501 79.4237 21.8787C79.5245 22.1073 79.6252 22.343 79.726 22.5858C79.8267 22.8287 79.9059 23.043 79.9634 23.2287H80.0714C80.1289 23.0573 80.2009 22.8501 80.2872 22.6073C80.388 22.3501 80.4887 22.093 80.5895 21.8358C80.7046 21.5644 80.8054 21.3287 80.8917 21.1287L83.5687 14.7001H86.9364L82.1654 25.5216Z" fill="black"/>
<path d="M89.0971 30.0001V14.7001H101.294V30.0001H98.0346V17.4001H92.3569V30.0001H89.0971Z" fill="black"/>
<path d="M110.321 14.7001C112.307 14.7001 113.753 15.1287 114.66 15.9858C115.581 16.8287 116.042 17.993 116.042 19.4787C116.042 20.1501 115.941 20.793 115.739 21.4073C115.538 22.0073 115.2 22.5501 114.725 23.0358C114.264 23.5073 113.653 23.8787 112.89 24.1501C112.127 24.4216 111.184 24.5573 110.062 24.5573H108.659V30.0001H105.399V14.7001H110.321ZM110.148 17.3573H108.659V21.9001H109.738C110.357 21.9001 110.889 21.8216 111.335 21.6644C111.782 21.5073 112.127 21.2573 112.372 20.9144C112.616 20.5716 112.739 20.1287 112.739 19.5858C112.739 18.8287 112.53 18.2716 112.113 17.9144C111.695 17.543 111.04 17.3573 110.148 17.3573Z" fill="black"/>
<path d="M127.529 30.0001L126.407 26.3573H120.794L119.671 30.0001H116.152L121.593 14.6358H125.586L131.048 30.0001H127.529ZM124.507 20.0787C124.435 19.8358 124.341 19.5287 124.226 19.1573C124.111 18.7858 123.996 18.4073 123.881 18.0216C123.766 17.6358 123.672 17.3001 123.6 17.0144C123.528 17.3001 123.428 17.6573 123.298 18.0858C123.183 18.5001 123.068 18.9001 122.953 19.2858C122.852 19.6573 122.773 19.9216 122.715 20.0787L121.614 23.6358H125.63L124.507 20.0787Z" fill="black"/>
<path d="M139.757 17.1858C139.139 17.1858 138.585 17.3073 138.095 17.5501C137.62 17.793 137.217 18.143 136.886 18.6001C136.555 19.043 136.303 19.5858 136.131 20.2287C135.972 20.8716 135.893 21.593 135.893 22.393C135.893 23.4787 136.023 24.4073 136.282 25.1787C136.555 25.9358 136.98 26.5144 137.556 26.9144C138.131 27.3144 138.865 27.5144 139.757 27.5144C140.391 27.5144 141.017 27.443 141.636 27.3001C142.269 27.1573 142.953 26.9573 143.687 26.7001V29.4216C143.01 29.693 142.341 29.893 141.679 30.0216C141.017 30.1501 140.276 30.2144 139.455 30.2144C137.872 30.2144 136.562 29.893 135.526 29.2501C134.504 28.593 133.749 27.6787 133.259 26.5073C132.77 25.3216 132.525 23.943 132.525 22.3716C132.525 21.2144 132.684 20.1573 133 19.2001C133.317 18.2287 133.778 17.393 134.382 16.693C135.001 15.993 135.756 15.4501 136.649 15.0644C137.555 14.6787 138.592 14.4858 139.757 14.4858C140.52 14.4858 141.283 14.5858 142.046 14.7858C142.823 14.9716 143.564 15.2287 144.269 15.5573L143.212 18.193C142.636 17.9216 142.053 17.6858 141.463 17.4858C140.887 17.2858 140.319 17.1858 139.757 17.1858Z" fill="black"/>
<path d="M153.115 30.0001H149.855V17.4001H145.667V14.7001H157.303V17.4001H153.115V30.0001Z" fill="black"/>
<path d="M159.895 14.7001H162.831V22.093C162.831 22.4501 162.824 22.8501 162.81 23.293C162.795 23.7358 162.781 24.1716 162.767 24.6001C162.752 25.0144 162.738 25.3787 162.723 25.693C162.709 25.993 162.695 26.2001 162.68 26.3144H162.745L169.869 14.7001H173.777V30.0001H170.862V22.6501C170.862 22.2644 170.869 21.843 170.884 21.3858C170.898 20.9144 170.913 20.4644 170.927 20.0358C170.956 19.6073 170.977 19.2358 170.992 18.9216C171.021 18.593 171.042 18.3787 171.057 18.2787H170.97L163.824 30.0001H159.895V14.7001Z" fill="black"/>
<path d="M190.513 30.0001H187.253V23.4001H181.143V30.0001H177.884V14.7001H181.143V20.7001H187.253V14.7001H190.513V30.0001Z" fill="black"/>
<path d="M203.48 30.0001H194.607V14.7001H203.48V17.3573H197.867V20.7216H203.091V23.3787H197.867V27.3216H203.48V30.0001Z" fill="black"/>
<path d="M219.467 30.0001H215.754L210.163 22.243V30.0001H206.903V14.7001H210.163V22.1144L215.689 14.7001H219.165L213.552 22.0501L219.467 30.0001Z" fill="black"/>
<path d="M227.743 17.1858C227.124 17.1858 226.57 17.3073 226.081 17.5501C225.606 17.793 225.203 18.143 224.872 18.6001C224.541 19.043 224.289 19.5858 224.116 20.2287C223.958 20.8716 223.879 21.593 223.879 22.393C223.879 23.4787 224.008 24.4073 224.267 25.1787C224.541 25.9358 224.965 26.5144 225.541 26.9144C226.117 27.3144 226.851 27.5144 227.743 27.5144C228.376 27.5144 229.002 27.443 229.621 27.3001C230.254 27.1573 230.938 26.9573 231.672 26.7001V29.4216C230.995 29.693 230.326 29.893 229.664 30.0216C229.002 30.1501 228.261 30.2144 227.441 30.2144C225.857 30.2144 224.548 29.893 223.512 29.2501C222.49 28.593 221.734 27.6787 221.245 26.5073C220.755 25.3216 220.511 23.943 220.511 22.3716C220.511 21.2144 220.669 20.1573 220.986 19.2001C221.302 18.2287 221.763 17.393 222.367 16.693C222.986 15.993 223.742 15.4501 224.634 15.0644C225.541 14.6787 226.577 14.4858 227.743 14.4858C228.506 14.4858 229.268 14.5858 230.031 14.7858C230.808 14.9716 231.55 15.2287 232.255 15.5573L231.197 18.193C230.621 17.9216 230.038 17.6858 229.448 17.4858C228.873 17.2858 228.304 17.1858 227.743 17.1858Z" fill="black"/>
<defs>
<linearGradient id="paint0_linear_1701_212" x1="47.4694" y1="18.314" x2="1.54791" y2="18.314" gradientUnits="userSpaceOnUse">
<stop stop-color="#DA5DB0"/>
<stop offset="1" stop-color="#924292"/>
</linearGradient>
<linearGradient id="paint1_linear_1701_212" x1="47.4694" y1="18.314" x2="1.54791" y2="18.314" gradientUnits="userSpaceOnUse">
<stop stop-color="#DA5DB0"/>
<stop offset="1" stop-color="#924292"/>
</linearGradient>
<linearGradient id="paint2_linear_1701_212" x1="47.4694" y1="18.314" x2="1.54791" y2="18.314" gradientUnits="userSpaceOnUse">
<stop stop-color="#DA5DB0"/>
<stop offset="1" stop-color="#924292"/>
</linearGradient>
</defs>
</svg>
