<svg width="48" height="48" viewBox="0 0 48 48" fill="none" xmlns="http://www.w3.org/2000/svg">
<path fill-rule="evenodd" clip-rule="evenodd" d="M11 13C11 12.4477 11.4477 12 12 12H36C36.5523 12 37 12.4477 37 13V15.2353C37 15.7876 36.5523 16.2353 36 16.2353H12C11.4477 16.2353 11 15.7876 11 15.2353V13ZM11 22.5684C11 22.0161 11.4477 21.5684 12 21.5684H36C36.5523 21.5684 37 22.0161 37 22.5684V24.8037C37 25.3559 36.5523 25.8037 36 25.8037H12C11.4477 25.8037 11 25.3559 11 24.8037V22.5684ZM12 31.1367C11.4477 31.1367 11 31.5844 11 32.1367V34.372C11 34.9243 11.4477 35.372 12 35.372H36C36.5523 35.372 37 34.9243 37 34.372V32.1367C37 31.5844 36.5523 31.1367 36 31.1367H12Z" fill="black"/>
</svg>
