<svg width="90" height="90" viewBox="0 0 90 90" fill="none" xmlns="http://www.w3.org/2000/svg">
<g clip-path="url(#clip0_1902_19963)">
<g filter="url(#filter0_d_1902_19963)">
<path d="M9.27365 46.9663L25.7962 75.5842C26.4371 76.6942 27.6214 77.3779 28.903 77.3779L61.9482 77.3779C63.2299 77.3779 64.4142 76.6942 65.055 75.5842L69.1857 68.4297L77.4469 54.1207L81.5776 46.9663C82.2184 45.8563 82.2184 44.4888 81.5776 43.3788L65.055 14.7609C64.4142 13.6509 63.2299 12.9672 61.9482 12.9672L28.903 12.9672C27.6214 12.9672 26.4371 13.6509 25.7962 14.7609L9.27365 43.3788C8.63282 44.4888 8.63282 45.8563 9.27365 46.9663Z" fill="white"/>
</g>
<path d="M19.23 37.7786L15.96 43.4424C15.4527 44.3211 15.4528 45.4037 15.9602 46.2825L29.0439 68.9398C29.5514 69.8186 30.4891 70.36 31.5039 70.3601L57.6676 70.3622C58.6823 70.3623 59.62 69.8211 60.1273 68.9424L73.2073 46.2871C73.7146 45.4084 73.7145 44.3258 73.2071 43.447L60.1234 20.7896C59.6159 19.9109 58.6782 19.3695 57.6634 19.3694L31.4997 19.3673C30.485 19.3672 29.5473 19.9084 29.04 20.7871L25.77 26.4509" stroke="url(#paint0_linear_1902_19963)" stroke-width="3" stroke-linecap="round"/>
<path d="M48.9027 48.8477H34.3519L34.3519 45.7812H48.9027C50.322 45.7812 51.4873 45.5534 52.3988 45.0977C53.3102 44.6419 53.9808 43.9974 54.4105 43.1641C54.8532 42.3307 55.0746 41.3477 55.0746 40.2148C55.0746 39.2904 54.8662 38.4049 54.4496 37.5586C54.0459 36.7122 53.3884 36.0156 52.4769 35.4688C51.5785 34.9219 50.3871 34.6484 48.9027 34.6484H42.1449L42.1449 60H38.3949L38.3949 31.5625H48.9027C51.0511 31.5625 52.861 31.9336 54.3324 32.6758C55.8037 33.4049 56.917 34.4206 57.6722 35.7227C58.4404 37.0117 58.8246 38.4961 58.8246 40.1758C58.8246 41.9987 58.4404 43.5612 57.6722 44.8633C56.917 46.1523 55.8037 47.1419 54.3324 47.832C52.861 48.5091 51.0511 48.8477 48.9027 48.8477ZM48.6683 51.5234V54.6094H34.3519V51.5234H48.6683Z" fill="#EC519E"/>
</g>
<defs>
<filter id="filter0_d_1902_19963" x="-1.20312" y="6.96716" width="85.2578" height="76.4108" filterUnits="userSpaceOnUse" color-interpolation-filters="sRGB">
<feFlood flood-opacity="0" result="BackgroundImageFix"/>
<feColorMatrix in="SourceAlpha" type="matrix" values="0 0 0 0 0 0 0 0 0 0 0 0 0 0 0 0 0 0 127 0" result="hardAlpha"/>
<feOffset dx="-4"/>
<feGaussianBlur stdDeviation="3"/>
<feComposite in2="hardAlpha" operator="out"/>
<feColorMatrix type="matrix" values="0 0 0 0 0.490196 0 0 0 0 0.243137 0 0 0 0 0.443137 0 0 0 0.25 0"/>
<feBlend mode="normal" in2="BackgroundImageFix" result="effect1_dropShadow_1902_19963"/>
<feBlend mode="normal" in="SourceGraphic" in2="effect1_dropShadow_1902_19963" result="shape"/>
</filter>
<linearGradient id="paint0_linear_1902_19963" x1="59.0836" y1="19.75" x2="30.0836" y2="69.9795" gradientUnits="userSpaceOnUse">
<stop stop-color="#DA5DB0"/>
<stop offset="1" stop-color="#924292"/>
</linearGradient>
<clipPath id="clip0_1902_19963">
<rect width="90" height="90" fill="white"/>
</clipPath>
</defs>
</svg>
