<svg width="90" height="90" viewBox="0 0 90 90" fill="none" xmlns="http://www.w3.org/2000/svg">
<g clip-path="url(#clip0_788_4300)">
<g filter="url(#filter0_d_788_4300)">
<path d="M9.27365 46.9663L25.7962 75.5842C26.4371 76.6942 27.6214 77.3779 28.903 77.3779L61.9482 77.3779C63.2299 77.3779 64.4142 76.6942 65.055 75.5842L69.1857 68.4297L77.4469 54.1207L81.5776 46.9663C82.2184 45.8563 82.2184 44.4888 81.5776 43.3788L65.055 14.7609C64.4142 13.6509 63.2299 12.9672 61.9482 12.9672L28.903 12.9672C27.6214 12.9672 26.4371 13.6509 25.7962 14.7609L9.27365 43.3788C8.63282 44.4888 8.63282 45.8563 9.27365 46.9663Z" fill="white"/>
</g>
<path d="M63.3941 26.45L60.1241 20.7861C59.6167 19.9075 58.6791 19.3662 57.6643 19.3663L31.5006 19.3684C30.4859 19.3685 29.5481 19.9099 29.0407 20.7887L15.957 43.4461C15.4495 44.3248 15.4495 45.4075 15.9568 46.2861L29.0368 68.9414C29.5441 69.8201 30.4817 70.3613 31.4965 70.3613L57.6602 70.3591C58.675 70.359 59.6127 69.8177 60.1201 68.9389L73.2038 46.2815C73.7113 45.4027 73.7114 44.3201 73.2041 43.4414L69.9341 37.7776" stroke="url(#paint0_linear_788_4300)" stroke-width="3" stroke-linecap="round"/>
<path d="M45.2832 61.5893C46.6616 61.0749 49.9566 59.9233 54.2959 54.5089C57.1989 50.8868 58.6204 45.0534 59.2799 39.9526C59.4754 38.4409 59.6039 36.9935 59.6843 35.6872C59.7905 33.96 57.2482 35.0414 55.8542 34.2654C54.6712 33.6068 53.2348 31.4631 52.6234 30.4893C52.4342 30.1878 52.1059 30 51.75 30L44.8463 30H37.8597C37.5523 30 37.2629 30.1403 37.0676 30.3777C36.425 31.1587 34.9027 32.9304 33.8275 33.5545C32.3486 34.4129 29.8971 33.96 30.0033 35.6872C30.0837 36.9935 30.2122 38.4409 30.4077 39.9526C31.0672 45.0534 32.4887 50.8868 35.3917 54.5089C39.7312 59.9235 43.0302 61.075 44.4094 61.5894C44.6897 61.6939 45.0029 61.6939 45.2832 61.5893Z" stroke="#9D3D97" stroke-width="2.5"/>
<path d="M39.0469 44.3525L44.0206 50.0576L53.4153 39.2812" stroke="#EC519E" stroke-width="3" stroke-linecap="round"/>
</g>
<defs>
<filter id="filter0_d_788_4300" x="-1.20312" y="6.9668" width="85.2578" height="76.4121" filterUnits="userSpaceOnUse" color-interpolation-filters="sRGB">
<feFlood flood-opacity="0" result="BackgroundImageFix"/>
<feColorMatrix in="SourceAlpha" type="matrix" values="0 0 0 0 0 0 0 0 0 0 0 0 0 0 0 0 0 0 127 0" result="hardAlpha"/>
<feOffset dx="-4"/>
<feGaussianBlur stdDeviation="3"/>
<feComposite in2="hardAlpha" operator="out"/>
<feColorMatrix type="matrix" values="0 0 0 0 0.490196 0 0 0 0 0.243137 0 0 0 0 0.443137 0 0 0 0.25 0"/>
<feBlend mode="normal" in2="BackgroundImageFix" result="effect1_dropShadow_788_4300"/>
<feBlend mode="normal" in="SourceGraphic" in2="effect1_dropShadow_788_4300" result="shape"/>
</filter>
<linearGradient id="paint0_linear_788_4300" x1="59.0804" y1="69.9785" x2="30.0804" y2="19.749" gradientUnits="userSpaceOnUse">
<stop stop-color="#DA5DB0"/>
<stop offset="1" stop-color="#924292"/>
</linearGradient>
<clipPath id="clip0_788_4300">
<rect width="90" height="90" fill="white"/>
</clipPath>
</defs>
</svg>
