<svg width="90" height="90" viewBox="0 0 90 90" fill="none" xmlns="http://www.w3.org/2000/svg">
<g clip-path="url(#clip0_1902_19981)">
<g filter="url(#filter0_d_1902_19981)">
<path d="M9.27365 46.9663L25.7962 75.5842C26.4371 76.6942 27.6214 77.3779 28.903 77.3779L61.9482 77.3779C63.2299 77.3779 64.4142 76.6942 65.055 75.5842L69.1857 68.4297L77.4469 54.1207L81.5776 46.9663C82.2184 45.8563 82.2184 44.4888 81.5776 43.3788L65.055 14.7609C64.4142 13.6509 63.2299 12.9672 61.9482 12.9672L28.903 12.9672C27.6214 12.9672 26.4371 13.6509 25.7962 14.7609L9.27365 43.3788C8.63282 44.4888 8.63282 45.8563 9.27365 46.9663Z" fill="white"/>
</g>
<path d="M63.3941 63.2786L60.1241 68.9424C59.6167 69.8211 58.6791 70.3623 57.6643 70.3622L31.5006 70.3601C30.4859 70.36 29.5481 69.8186 29.0407 68.9398L15.957 46.2825C15.4495 45.4037 15.4494 44.3211 15.9568 43.4424L29.0368 20.7871C29.5441 19.9084 30.4817 19.3672 31.4965 19.3673L57.6602 19.3694C58.675 19.3695 59.6127 19.9109 60.1201 20.7896L73.2038 43.447C73.7113 44.3258 73.7114 45.4084 73.2041 46.2871L69.9341 51.9509" stroke="url(#paint0_linear_1902_19981)" stroke-width="3" stroke-linecap="round"/>
<path fill-rule="evenodd" clip-rule="evenodd" d="M51.774 48.1852C54.2562 46.1037 55.8286 42.9865 55.8286 39.5C55.8286 33.2434 50.7566 28.1714 44.5 28.1714C38.2434 28.1714 33.1714 33.2434 33.1714 39.5C33.1714 43.1445 34.89 46.3866 37.5698 48.4624C38.7543 49.3799 39.7656 50.7993 39.9269 52.5734L40.2239 55.8411C40.2748 56.4004 40.7437 56.8286 41.3052 56.8286H48.1896C48.7511 56.8286 49.22 56.4004 49.2708 55.8411L49.6062 52.1526C49.7593 50.4681 50.6814 49.1014 51.774 48.1852ZM53.1693 49.849C52.4093 50.4864 51.8585 51.3613 51.7687 52.3491L51.4334 56.0377C51.2808 57.7154 49.8742 59 48.1896 59H41.3052C39.6206 59 38.2139 57.7154 38.0614 56.0377L37.7644 52.77C37.6698 51.7299 37.0658 50.8186 36.2401 50.179C33.0522 47.7097 31 43.8445 31 39.5C31 32.0442 37.0442 26 44.5 26C51.9558 26 58 32.0442 58 39.5C58 43.6556 56.1224 47.3726 53.1693 49.849Z" fill="#9D3D97"/>
<path d="M52.9922 39.5003C52.9922 44.1947 49.1866 48.0003 44.4922 48.0003C39.7978 48.0003 35.9922 44.1947 35.9922 39.5003C35.9922 34.8059 39.7978 31.0003 44.4922 31.0003C49.1866 31.0003 52.9922 34.8059 52.9922 39.5003Z" fill="#EC519E"/>
<path fill-rule="evenodd" clip-rule="evenodd" d="M38.9922 58.0856C38.9922 57.486 39.4783 56.9999 40.0779 56.9999H48.9065C49.5061 56.9999 49.9922 57.486 49.9922 58.0856V62.9142C49.9922 63.5138 49.5061 63.9999 48.9065 63.9999H40.0779C39.4783 63.9999 38.9922 63.5138 38.9922 62.9142V58.0856ZM45.2373 59.1713H41.1636V60.2823L45.2373 59.1713ZM43.7471 61.8284L47.8208 60.7175V61.8284H43.7471Z" fill="#9D3D97"/>
</g>
<defs>
<filter id="filter0_d_1902_19981" x="-1.20312" y="6.96716" width="85.2578" height="76.4108" filterUnits="userSpaceOnUse" color-interpolation-filters="sRGB">
<feFlood flood-opacity="0" result="BackgroundImageFix"/>
<feColorMatrix in="SourceAlpha" type="matrix" values="0 0 0 0 0 0 0 0 0 0 0 0 0 0 0 0 0 0 127 0" result="hardAlpha"/>
<feOffset dx="-4"/>
<feGaussianBlur stdDeviation="3"/>
<feComposite in2="hardAlpha" operator="out"/>
<feColorMatrix type="matrix" values="0 0 0 0 0.490196 0 0 0 0 0.243137 0 0 0 0 0.443137 0 0 0 0.25 0"/>
<feBlend mode="normal" in2="BackgroundImageFix" result="effect1_dropShadow_1902_19981"/>
<feBlend mode="normal" in="SourceGraphic" in2="effect1_dropShadow_1902_19981" result="shape"/>
</filter>
<linearGradient id="paint0_linear_1902_19981" x1="59.0804" y1="19.75" x2="30.0804" y2="69.9795" gradientUnits="userSpaceOnUse">
<stop stop-color="#DA5DB0"/>
<stop offset="1" stop-color="#924292"/>
</linearGradient>
<clipPath id="clip0_1902_19981">
<rect width="90" height="90" fill="white"/>
</clipPath>
</defs>
</svg>
