<svg width="94" height="80" viewBox="0 0 94 80" fill="none" xmlns="http://www.w3.org/2000/svg">
<path d="M4.01317 46.6885C1.54299 42.5716 1.54299 37.4284 4.01318 33.3115L20.2134 6.31148C22.5628 2.39585 26.7944 3.1952e-07 31.3608 3.73974e-07L62.6398 7.46972e-07C67.2062 8.01426e-07 71.4378 2.39591 73.7872 6.31161L89.987 33.3116C92.4571 37.4285 92.4571 42.5715 89.987 46.6884L73.7872 73.6884C71.4378 77.6041 67.2062 80 62.6398 80L31.3608 80C26.7944 80 22.5628 77.6041 20.2134 73.6885L4.01317 46.6885Z"/>
<path d="M41 28L32.4387 39.8907C32.1788 40.2517 32.1886 40.741 32.4627 41.0913L41 52" stroke="white" stroke-width="2" stroke-linecap="round"/>
<path d="M53 52L61.5613 40.1093C61.8212 39.7483 61.8114 39.259 61.5373 38.9087L53 28" stroke="white" stroke-width="2" stroke-linecap="round"/>
</svg>
