<svg width="68" height="58" viewBox="0 0 68 58" fill="none" xmlns="http://www.w3.org/2000/svg">
<path d="M2.46022 33.1093C0.945434 30.5792 0.945434 27.4208 2.46022 24.8907L15.0327 3.89065C16.4776 1.47726 19.0837 2.27571e-07 21.8966 2.61114e-07L46.1038 5.49782e-07C48.9167 5.83326e-07 51.5229 1.47729 52.9678 3.89074L65.5399 24.8907C67.0546 27.4209 67.0546 30.5791 65.5399 33.1093L52.9678 54.1093C51.5229 56.5227 48.9167 58 46.1038 58L21.8966 58C19.0837 58 16.4776 56.5227 15.0327 54.1093L2.46022 33.1093Z" fill="url(#paint0_linear_1852_16804)"/>
<path d="M36.3086 17.127V42H32.916V20.7305C31.6035 21.8203 29.752 22.9219 27.3613 24.0352V21.1348C30.4082 19.4941 32.418 18.1582 33.3906 17.127H36.3086Z" fill="white"/>
<defs>
<linearGradient id="paint0_linear_1852_16804" x1="3.16188" y1="55.5667" x2="25.8436" y2="-9.46994" gradientUnits="userSpaceOnUse">
<stop stop-color="#9D3D97"/>
<stop offset="1" stop-color="#EC519E"/>
</linearGradient>
</defs>
</svg>
