<svg width="69" height="58" viewBox="0 0 69 58" fill="none" xmlns="http://www.w3.org/2000/svg">
<path d="M2.79616 33.1093C1.28137 30.5792 1.28137 27.4208 2.79616 24.8907L15.3686 3.89065C16.8135 1.47726 19.4197 2.27571e-07 22.2325 2.61114e-07L46.4398 5.49782e-07C49.2526 5.83326e-07 51.8588 1.47729 53.3037 3.89074L65.8758 24.8907C67.3905 27.4209 67.3905 30.5791 65.8758 33.1093L53.3037 54.1093C51.8588 56.5227 49.2526 58 46.4397 58L22.2325 58C19.4197 58 16.8135 56.5227 15.3686 54.1093L2.79616 33.1093Z" fill="url(#paint0_linear_1852_16811)"/>
<path d="M43.4102 42H26.2715V38.959C29.7285 36.0293 32.4941 33.4336 34.5684 31.1719C36.0801 29.543 37.1875 28.1074 37.8906 26.8652C38.5938 25.6348 38.9453 24.4922 38.9453 23.4375C38.9453 22.3477 38.5762 21.4102 37.8379 20.625C36.9707 19.7109 35.834 19.2539 34.4277 19.2539C32.6113 19.2539 31.3574 19.9746 30.666 21.416C30.3613 22.0605 30.1445 22.9453 30.0156 24.0703H26.2715C26.3652 23.168 26.4707 22.4473 26.5879 21.9082C26.9863 20.1504 28.0117 18.791 29.6641 17.8301C30.8945 17.1152 32.4414 16.7578 34.3047 16.7578C36.7773 16.7578 38.7695 17.3496 40.2812 18.5332C41.8047 19.7285 42.5664 21.3223 42.5664 23.3145C42.5664 24.873 42.127 26.3965 41.248 27.8848C39.8301 30.2637 36.0859 34.084 30.0156 39.3457H43.4102V42Z" fill="white"/>
<defs>
<linearGradient id="paint0_linear_1852_16811" x1="3.49782" y1="55.5667" x2="26.1795" y2="-9.46994" gradientUnits="userSpaceOnUse">
<stop stop-color="#9D3D97"/>
<stop offset="1" stop-color="#EC519E"/>
</linearGradient>
</defs>
</svg>
