<svg width="69" height="58" viewBox="0 0 69 58" fill="none" xmlns="http://www.w3.org/2000/svg">
<path d="M3.12428 33.1093C1.6095 30.5792 1.6095 27.4208 3.12428 24.8907L15.6967 3.89065C17.1416 1.47726 19.7478 2.27571e-07 22.5607 2.61114e-07L46.7679 5.49782e-07C49.5808 5.83326e-07 52.187 1.47729 53.6318 3.89074L66.204 24.8907C67.7187 27.4209 67.7187 30.5791 66.204 33.1093L53.6318 54.1093C52.187 56.5227 49.5808 58 46.7679 58L22.5607 58C19.7478 58 17.1416 56.5227 15.6967 54.1093L3.12428 33.1093Z" fill="url(#paint0_linear_1852_16818)"/>
<path d="M29.9043 23.7188H26.3535C26.4355 22.7695 26.5527 22.002 26.7051 21.416C27.127 19.7168 28.293 18.4336 30.2031 17.5664C31.4219 17.0156 32.9043 16.7402 34.6504 16.7402C37.041 16.7402 38.9746 17.2734 40.4512 18.3398C42.1035 19.5469 42.9297 21.1699 42.9297 23.209C42.9297 25.0723 42.2559 26.543 40.9082 27.6211C40.2051 28.1836 39.1445 28.6465 37.7266 29.0098C39.3086 29.3145 40.5215 29.7363 41.3652 30.2754C42.9355 31.2715 43.7207 32.8125 43.7207 34.8984C43.7207 36.4453 43.2637 37.8281 42.3496 39.0469C41.5059 40.1953 40.3398 41.0566 38.8516 41.6309C37.5508 42.123 36.1504 42.3691 34.6504 42.3691C32.8926 42.3691 31.334 42.041 29.9746 41.3848C27.6074 40.2363 26.2891 38.2266 26.0195 35.3555H29.5527C29.752 36.6328 30.1387 37.6055 30.7129 38.2734C31.6035 39.3398 32.9453 39.873 34.7383 39.873C36.3555 39.873 37.6738 39.3809 38.6934 38.3965C39.6309 37.5059 40.0996 36.3633 40.0996 34.9688C40.0996 33.293 39.4961 32.0859 38.2891 31.3477C37.2344 30.6914 35.6758 30.3633 33.6133 30.3633H32.3301V27.8848H33.5957C35.3184 27.8848 36.6953 27.4863 37.7266 26.6895C38.7812 25.8809 39.3086 24.7559 39.3086 23.3145C39.3086 22.1426 38.8926 21.1816 38.0605 20.4316C37.1699 19.6348 36.0098 19.2363 34.5801 19.2363C32.834 19.2363 31.5566 19.7871 30.748 20.8887C30.2324 21.5918 29.9512 22.5352 29.9043 23.7188Z" fill="white"/>
<defs>
<linearGradient id="paint0_linear_1852_16818" x1="3.82594" y1="55.5667" x2="26.5076" y2="-9.46994" gradientUnits="userSpaceOnUse">
<stop stop-color="#9D3D97"/>
<stop offset="1" stop-color="#EC519E"/>
</linearGradient>
</defs>
</svg>
